<mxfile host="65bd71144e" pages="5">
    <diagram id="ijjJsiVTh0D2ZwVIr43j" name="Research and">
        <mxGraphModel dx="4446" dy="3377" grid="0" gridSize="10" guides="1" tooltips="1" connect="1" arrows="1" fold="1" page="0" pageScale="1" pageWidth="827" pageHeight="1169" background="#ffffff" math="0" shadow="0">
            <root>
                <mxCell id="0"/>
                <mxCell id="1" parent="0"/>
                <mxCell id="YliF6_khSp9uCdl1Xro0-17" style="edgeStyle=orthogonalEdgeStyle;rounded=0;orthogonalLoop=1;jettySize=auto;html=1;exitX=0;exitY=0.5;exitDx=0;exitDy=0;entryX=1;entryY=0.5;entryDx=0;entryDy=0;labelBackgroundColor=#FFFFFF;fontColor=#18141D;strokeColor=#18141D;" parent="1" source="YliF6_khSp9uCdl1Xro0-1" target="YliF6_khSp9uCdl1Xro0-6" edge="1">
                    <mxGeometry relative="1" as="geometry"/>
                </mxCell>
                <mxCell id="YliF6_khSp9uCdl1Xro0-21" style="edgeStyle=orthogonalEdgeStyle;rounded=0;orthogonalLoop=1;jettySize=auto;html=1;exitX=1;exitY=0.5;exitDx=0;exitDy=0;entryX=0;entryY=0.5;entryDx=0;entryDy=0;labelBackgroundColor=#FFFFFF;fontColor=#18141D;strokeColor=#18141D;" parent="1" source="YliF6_khSp9uCdl1Xro0-1" target="YliF6_khSp9uCdl1Xro0-4" edge="1">
                    <mxGeometry relative="1" as="geometry"/>
                </mxCell>
                <mxCell id="dlf6kWhZrDI7cNF16P7J-30" style="edgeStyle=orthogonalEdgeStyle;rounded=0;orthogonalLoop=1;jettySize=auto;html=1;exitX=1;exitY=0.5;exitDx=0;exitDy=0;entryX=0;entryY=0.5;entryDx=0;entryDy=0;labelBackgroundColor=#FFFFFF;fontColor=#18141D;strokeColor=#18141D;" parent="1" source="YliF6_khSp9uCdl1Xro0-1" target="YliF6_khSp9uCdl1Xro0-5" edge="1">
                    <mxGeometry relative="1" as="geometry"/>
                </mxCell>
                <mxCell id="YliF6_khSp9uCdl1Xro0-1" value="Gym Finder" style="rounded=1;whiteSpace=wrap;html=1;arcSize=17;fillColor=#1EB6FF;strokeColor=#006EAF;fontColor=#18141D;labelBackgroundColor=none;" parent="1" vertex="1">
                    <mxGeometry x="350" y="560" width="100" height="40" as="geometry"/>
                </mxCell>
                <mxCell id="YliF6_khSp9uCdl1Xro0-28" style="edgeStyle=orthogonalEdgeStyle;rounded=0;orthogonalLoop=1;jettySize=auto;html=1;exitX=0.5;exitY=0;exitDx=0;exitDy=0;entryX=0;entryY=0.5;entryDx=0;entryDy=0;strokeColor=#18141D;" parent="1" source="YliF6_khSp9uCdl1Xro0-4" target="YliF6_khSp9uCdl1Xro0-27" edge="1">
                    <mxGeometry relative="1" as="geometry"/>
                </mxCell>
                <mxCell id="KDUoEc-DlCdJR0T2SsKX-4" style="edgeStyle=orthogonalEdgeStyle;rounded=0;orthogonalLoop=1;jettySize=auto;html=1;exitX=1;exitY=0.5;exitDx=0;exitDy=0;entryX=0;entryY=0.5;entryDx=0;entryDy=0;strokeColor=#18141D;" parent="1" source="YliF6_khSp9uCdl1Xro0-4" target="KDUoEc-DlCdJR0T2SsKX-3" edge="1">
                    <mxGeometry relative="1" as="geometry"/>
                </mxCell>
                <mxCell id="KDUoEc-DlCdJR0T2SsKX-7" style="edgeStyle=orthogonalEdgeStyle;rounded=0;orthogonalLoop=1;jettySize=auto;html=1;exitX=1;exitY=0.5;exitDx=0;exitDy=0;entryX=0;entryY=0.5;entryDx=0;entryDy=0;strokeColor=#18141D;" parent="1" source="YliF6_khSp9uCdl1Xro0-4" target="KDUoEc-DlCdJR0T2SsKX-6" edge="1">
                    <mxGeometry relative="1" as="geometry"/>
                </mxCell>
                <mxCell id="YliF6_khSp9uCdl1Xro0-4" value="User Requirements" style="rounded=1;whiteSpace=wrap;html=1;arcSize=17;fillColor=#f0a30a;fontColor=#000000;strokeColor=#BD7000;" parent="1" vertex="1">
                    <mxGeometry x="502" y="435" width="100" height="40" as="geometry"/>
                </mxCell>
                <mxCell id="KDUoEc-DlCdJR0T2SsKX-16" style="edgeStyle=orthogonalEdgeStyle;rounded=0;orthogonalLoop=1;jettySize=auto;html=1;exitX=1;exitY=0.5;exitDx=0;exitDy=0;entryX=0;entryY=0.5;entryDx=0;entryDy=0;strokeColor=#18141D;" parent="1" source="YliF6_khSp9uCdl1Xro0-5" target="KDUoEc-DlCdJR0T2SsKX-15" edge="1">
                    <mxGeometry relative="1" as="geometry"/>
                </mxCell>
                <mxCell id="ngkRSRsx5163floqqhg3-31" style="edgeStyle=orthogonalEdgeStyle;rounded=0;html=1;exitX=1;exitY=0.5;exitDx=0;exitDy=0;entryX=0;entryY=0.5;entryDx=0;entryDy=0;labelBackgroundColor=#FFFFFF;strokeColor=#18141D;fontColor=#1a1919;" parent="1" source="YliF6_khSp9uCdl1Xro0-5" target="ngkRSRsx5163floqqhg3-30" edge="1">
                    <mxGeometry relative="1" as="geometry"/>
                </mxCell>
                <mxCell id="ngkRSRsx5163floqqhg3-41" style="edgeStyle=orthogonalEdgeStyle;rounded=0;html=1;exitX=1;exitY=0.5;exitDx=0;exitDy=0;entryX=0;entryY=0.5;entryDx=0;entryDy=0;labelBackgroundColor=#FFFFFF;strokeColor=#18141D;fontColor=#1a1919;" parent="1" source="YliF6_khSp9uCdl1Xro0-5" target="ngkRSRsx5163floqqhg3-40" edge="1">
                    <mxGeometry relative="1" as="geometry"/>
                </mxCell>
                <mxCell id="YliF6_khSp9uCdl1Xro0-5" value="Client Requirements" style="rounded=1;whiteSpace=wrap;html=1;arcSize=17;fillColor=#f0a30a;fontColor=#000000;strokeColor=#BD7000;" parent="1" vertex="1">
                    <mxGeometry x="502" y="640" width="100" height="40" as="geometry"/>
                </mxCell>
                <mxCell id="dlf6kWhZrDI7cNF16P7J-25" style="edgeStyle=orthogonalEdgeStyle;rounded=0;orthogonalLoop=1;jettySize=auto;html=1;exitX=0;exitY=0.5;exitDx=0;exitDy=0;entryX=1;entryY=0.5;entryDx=0;entryDy=0;strokeColor=#18141D;" parent="1" source="YliF6_khSp9uCdl1Xro0-6" target="dlf6kWhZrDI7cNF16P7J-24" edge="1">
                    <mxGeometry relative="1" as="geometry">
                        <mxPoint x="168" y="760" as="sourcePoint"/>
                        <Array as="points">
                            <mxPoint x="165" y="560"/>
                        </Array>
                    </mxGeometry>
                </mxCell>
                <mxCell id="KDUoEc-DlCdJR0T2SsKX-11" style="edgeStyle=orthogonalEdgeStyle;rounded=0;orthogonalLoop=1;jettySize=auto;html=1;exitX=0;exitY=0.5;exitDx=0;exitDy=0;entryX=1;entryY=0.5;entryDx=0;entryDy=0;labelBackgroundColor=#FFFFFF;fontColor=#18141D;strokeColor=#18141D;" parent="1" source="ngkRSRsx5163floqqhg3-3" target="KDUoEc-DlCdJR0T2SsKX-10" edge="1">
                    <mxGeometry relative="1" as="geometry"/>
                </mxCell>
                <mxCell id="KDUoEc-DlCdJR0T2SsKX-13" style="edgeStyle=orthogonalEdgeStyle;rounded=0;orthogonalLoop=1;jettySize=auto;html=1;exitX=0;exitY=0.5;exitDx=0;exitDy=0;entryX=1;entryY=0.5;entryDx=0;entryDy=0;labelBackgroundColor=#FFFFFF;fontColor=#18141D;strokeColor=#18141D;" parent="1" source="ngkRSRsx5163floqqhg3-3" target="KDUoEc-DlCdJR0T2SsKX-12" edge="1">
                    <mxGeometry relative="1" as="geometry"/>
                </mxCell>
                <mxCell id="KDUoEc-DlCdJR0T2SsKX-27" style="edgeStyle=orthogonalEdgeStyle;rounded=0;orthogonalLoop=1;jettySize=auto;html=1;exitX=0;exitY=0.5;exitDx=0;exitDy=0;entryX=1;entryY=0.5;entryDx=0;entryDy=0;labelBackgroundColor=#FFFFFF;fontColor=#18141D;strokeColor=#18141D;" parent="1" source="YliF6_khSp9uCdl1Xro0-6" target="KDUoEc-DlCdJR0T2SsKX-26" edge="1">
                    <mxGeometry relative="1" as="geometry"/>
                </mxCell>
                <mxCell id="ngkRSRsx5163floqqhg3-4" style="edgeStyle=orthogonalEdgeStyle;html=1;exitX=0;exitY=0.5;exitDx=0;exitDy=0;entryX=1;entryY=0.5;entryDx=0;entryDy=0;rounded=0;labelBackgroundColor=#FFFFFF;fontColor=#18141D;strokeColor=#18141D;" parent="1" source="YliF6_khSp9uCdl1Xro0-6" target="ngkRSRsx5163floqqhg3-3" edge="1">
                    <mxGeometry relative="1" as="geometry"/>
                </mxCell>
                <mxCell id="ngkRSRsx5163floqqhg3-15" style="edgeStyle=orthogonalEdgeStyle;rounded=0;html=1;exitX=0;exitY=0.5;exitDx=0;exitDy=0;entryX=1;entryY=0.5;entryDx=0;entryDy=0;labelBackgroundColor=#FFFFFF;strokeColor=#18141D;fontColor=#1a1919;" parent="1" source="YliF6_khSp9uCdl1Xro0-6" target="YliF6_khSp9uCdl1Xro0-13" edge="1">
                    <mxGeometry relative="1" as="geometry"/>
                </mxCell>
                <mxCell id="ngkRSRsx5163floqqhg3-16" style="edgeStyle=orthogonalEdgeStyle;rounded=0;html=1;exitX=0;exitY=0.5;exitDx=0;exitDy=0;entryX=1;entryY=0.5;entryDx=0;entryDy=0;labelBackgroundColor=#FFFFFF;strokeColor=#18141D;fontColor=#1a1919;" parent="1" source="YliF6_khSp9uCdl1Xro0-6" target="ngkRSRsx5163floqqhg3-13" edge="1">
                    <mxGeometry relative="1" as="geometry">
                        <Array as="points">
                            <mxPoint x="149" y="560"/>
                            <mxPoint x="149" y="268"/>
                            <mxPoint x="-219" y="268"/>
                            <mxPoint x="-219" y="134"/>
                        </Array>
                    </mxGeometry>
                </mxCell>
                <mxCell id="YliF6_khSp9uCdl1Xro0-6" value="Developer Requirements" style="rounded=1;whiteSpace=wrap;html=1;arcSize=17;container=0;labelBackgroundColor=none;fontColor=#000000;fillColor=#f0a30a;strokeColor=#BD7000;" parent="1" vertex="1">
                    <mxGeometry x="198" y="540" width="100" height="40" as="geometry"/>
                </mxCell>
                <mxCell id="YliF6_khSp9uCdl1Xro0-7" style="edgeStyle=orthogonalEdgeStyle;rounded=0;orthogonalLoop=1;jettySize=auto;html=1;exitX=0;exitY=0.5;exitDx=0;exitDy=0;entryX=1;entryY=0.5;entryDx=0;entryDy=0;labelBackgroundColor=#FFFFFF;fontColor=#18141D;strokeColor=#18141D;" parent="1" source="YliF6_khSp9uCdl1Xro0-6" target="YliF6_khSp9uCdl1Xro0-8" edge="1">
                    <mxGeometry relative="1" as="geometry">
                        <mxPoint x="138" y="580" as="targetPoint"/>
                    </mxGeometry>
                </mxCell>
                <mxCell id="YliF6_khSp9uCdl1Xro0-11" style="edgeStyle=orthogonalEdgeStyle;rounded=0;orthogonalLoop=1;jettySize=auto;html=1;exitX=0;exitY=0.5;exitDx=0;exitDy=0;entryX=1;entryY=0.5;entryDx=0;entryDy=0;labelBackgroundColor=#FFFFFF;fontColor=#18141D;strokeColor=#18141D;" parent="1" source="YliF6_khSp9uCdl1Xro0-6" target="YliF6_khSp9uCdl1Xro0-10" edge="1">
                    <mxGeometry relative="1" as="geometry"/>
                </mxCell>
                <mxCell id="YliF6_khSp9uCdl1Xro0-16" style="edgeStyle=orthogonalEdgeStyle;rounded=0;orthogonalLoop=1;jettySize=auto;html=1;exitX=0;exitY=0.5;exitDx=0;exitDy=0;entryX=1;entryY=0.5;entryDx=0;entryDy=0;labelBackgroundColor=#FFFFFF;fontColor=#18141D;strokeColor=#18141D;" parent="1" source="YliF6_khSp9uCdl1Xro0-6" target="YliF6_khSp9uCdl1Xro0-15" edge="1">
                    <mxGeometry relative="1" as="geometry"/>
                </mxCell>
                <mxCell id="YliF6_khSp9uCdl1Xro0-8" value="Must have an understanding of data exchange, design and privacy principles and programming" style="rounded=1;whiteSpace=wrap;html=1;arcSize=17;container=0;fillColor=#ffcc99;labelBackgroundColor=none;strokeColor=#36393d;fontColor=#322f2f;" parent="1" vertex="1">
                    <mxGeometry x="-133" y="53" width="230" height="60" as="geometry"/>
                </mxCell>
                <mxCell id="YliF6_khSp9uCdl1Xro0-10" value="Understand the application architecture between the fullstack web application and API calls." style="rounded=1;whiteSpace=wrap;html=1;arcSize=17;container=0;fillColor=#ffcc99;labelBackgroundColor=none;strokeColor=#36393d;fontColor=#322f2f;" parent="1" vertex="1">
                    <mxGeometry x="-133" y="-200" width="230" height="60" as="geometry"/>
                </mxCell>
                <mxCell id="YliF6_khSp9uCdl1Xro0-13" value="Sufficient understanding in javascript and be able to work with javascript frameworks for front end and back end." style="rounded=1;whiteSpace=wrap;html=1;arcSize=17;container=0;fillColor=#ffcc99;labelBackgroundColor=none;strokeColor=#36393d;fontColor=#322f2f;" parent="1" vertex="1">
                    <mxGeometry x="-123" y="-114" width="220" height="70" as="geometry"/>
                </mxCell>
                <mxCell id="YliF6_khSp9uCdl1Xro0-15" value="Ability to maintain and add new features to the application over time." style="rounded=1;whiteSpace=wrap;html=1;arcSize=17;container=0;fillColor=#ffcc99;labelBackgroundColor=none;strokeColor=#36393d;fontColor=#322f2f;" parent="1" vertex="1">
                    <mxGeometry x="-103" y="-26" width="200" height="60" as="geometry"/>
                </mxCell>
                <mxCell id="dlf6kWhZrDI7cNF16P7J-3" style="edgeStyle=orthogonalEdgeStyle;rounded=0;orthogonalLoop=1;jettySize=auto;html=1;exitX=1;exitY=0.5;exitDx=0;exitDy=0;entryX=0;entryY=0.5;entryDx=0;entryDy=0;strokeColor=#18141D;" parent="1" source="YliF6_khSp9uCdl1Xro0-22" target="dlf6kWhZrDI7cNF16P7J-2" edge="1">
                    <mxGeometry relative="1" as="geometry"/>
                </mxCell>
                <mxCell id="YliF6_khSp9uCdl1Xro0-22" value="Michelle Bridges" style="rounded=1;whiteSpace=wrap;html=1;arcSize=17;fillColor=#ffcc99;strokeColor=#36393d;labelBackgroundColor=none;fontColor=#322f2f;" parent="1" vertex="1">
                    <mxGeometry x="921" y="-42" width="100" height="40" as="geometry"/>
                </mxCell>
                <mxCell id="dlf6kWhZrDI7cNF16P7J-11" style="edgeStyle=orthogonalEdgeStyle;rounded=0;orthogonalLoop=1;jettySize=auto;html=1;exitX=1;exitY=0.5;exitDx=0;exitDy=0;entryX=0;entryY=0.5;entryDx=0;entryDy=0;strokeColor=#18141D;" parent="1" source="YliF6_khSp9uCdl1Xro0-23" target="dlf6kWhZrDI7cNF16P7J-8" edge="1">
                    <mxGeometry relative="1" as="geometry"/>
                </mxCell>
                <mxCell id="YliF6_khSp9uCdl1Xro0-23" value="Fincoln Lorbes" style="rounded=1;whiteSpace=wrap;html=1;arcSize=17;fillColor=#ffcc99;strokeColor=#36393d;labelBackgroundColor=none;fontColor=#322f2f;" parent="1" vertex="1">
                    <mxGeometry x="921" y="48" width="100" height="40" as="geometry"/>
                </mxCell>
                <mxCell id="dlf6kWhZrDI7cNF16P7J-12" style="edgeStyle=orthogonalEdgeStyle;rounded=0;orthogonalLoop=1;jettySize=auto;html=1;exitX=1;exitY=0.5;exitDx=0;exitDy=0;strokeColor=#18141D;" parent="1" source="YliF6_khSp9uCdl1Xro0-24" target="dlf6kWhZrDI7cNF16P7J-9" edge="1">
                    <mxGeometry relative="1" as="geometry"/>
                </mxCell>
                <mxCell id="dlf6kWhZrDI7cNF16P7J-13" style="edgeStyle=orthogonalEdgeStyle;rounded=0;orthogonalLoop=1;jettySize=auto;html=1;exitX=1;exitY=0.5;exitDx=0;exitDy=0;strokeColor=#18141D;" parent="1" source="YliF6_khSp9uCdl1Xro0-24" target="dlf6kWhZrDI7cNF16P7J-10" edge="1">
                    <mxGeometry relative="1" as="geometry"/>
                </mxCell>
                <mxCell id="YliF6_khSp9uCdl1Xro0-24" value="Jacked John" style="rounded=1;whiteSpace=wrap;html=1;arcSize=17;fillColor=#ffcc99;strokeColor=#36393d;labelBackgroundColor=none;fontColor=#322f2f;" parent="1" vertex="1">
                    <mxGeometry x="921" y="128" width="100" height="40" as="geometry"/>
                </mxCell>
                <mxCell id="dlf6kWhZrDI7cNF16P7J-16" style="edgeStyle=orthogonalEdgeStyle;rounded=0;orthogonalLoop=1;jettySize=auto;html=1;exitX=1;exitY=0.5;exitDx=0;exitDy=0;strokeColor=#18141D;" parent="1" source="YliF6_khSp9uCdl1Xro0-25" target="dlf6kWhZrDI7cNF16P7J-15" edge="1">
                    <mxGeometry relative="1" as="geometry"/>
                </mxCell>
                <mxCell id="dlf6kWhZrDI7cNF16P7J-23" style="edgeStyle=orthogonalEdgeStyle;rounded=0;orthogonalLoop=1;jettySize=auto;html=1;exitX=1;exitY=0.5;exitDx=0;exitDy=0;entryX=0;entryY=0.5;entryDx=0;entryDy=0;strokeColor=#18141D;" parent="1" source="YliF6_khSp9uCdl1Xro0-25" target="dlf6kWhZrDI7cNF16P7J-22" edge="1">
                    <mxGeometry relative="1" as="geometry">
                        <mxPoint x="1071" y="368" as="targetPoint"/>
                    </mxGeometry>
                </mxCell>
                <mxCell id="YliF6_khSp9uCdl1Xro0-25" value="Bill Wenson" style="rounded=1;whiteSpace=wrap;html=1;arcSize=17;fillColor=#ffcc99;strokeColor=#36393d;labelBackgroundColor=none;fontColor=#322f2f;" parent="1" vertex="1">
                    <mxGeometry x="921" y="303" width="100" height="40" as="geometry"/>
                </mxCell>
                <mxCell id="YliF6_khSp9uCdl1Xro0-29" style="edgeStyle=orthogonalEdgeStyle;rounded=0;orthogonalLoop=1;jettySize=auto;html=1;exitX=1;exitY=0.5;exitDx=0;exitDy=0;entryX=0;entryY=0.5;entryDx=0;entryDy=0;strokeColor=#18141D;" parent="1" source="YliF6_khSp9uCdl1Xro0-27" target="YliF6_khSp9uCdl1Xro0-22" edge="1">
                    <mxGeometry relative="1" as="geometry"/>
                </mxCell>
                <mxCell id="YliF6_khSp9uCdl1Xro0-30" style="edgeStyle=orthogonalEdgeStyle;rounded=0;orthogonalLoop=1;jettySize=auto;html=1;exitX=1;exitY=0.5;exitDx=0;exitDy=0;strokeColor=#18141D;" parent="1" source="YliF6_khSp9uCdl1Xro0-27" target="YliF6_khSp9uCdl1Xro0-23" edge="1">
                    <mxGeometry relative="1" as="geometry"/>
                </mxCell>
                <mxCell id="YliF6_khSp9uCdl1Xro0-31" style="edgeStyle=orthogonalEdgeStyle;rounded=0;orthogonalLoop=1;jettySize=auto;html=1;exitX=1;exitY=0.5;exitDx=0;exitDy=0;entryX=0;entryY=0.5;entryDx=0;entryDy=0;strokeColor=#18141D;" parent="1" source="YliF6_khSp9uCdl1Xro0-27" target="YliF6_khSp9uCdl1Xro0-25" edge="1">
                    <mxGeometry relative="1" as="geometry"/>
                </mxCell>
                <mxCell id="YliF6_khSp9uCdl1Xro0-32" style="edgeStyle=orthogonalEdgeStyle;rounded=0;orthogonalLoop=1;jettySize=auto;html=1;exitX=1;exitY=0.5;exitDx=0;exitDy=0;strokeColor=#18141D;" parent="1" source="YliF6_khSp9uCdl1Xro0-27" target="YliF6_khSp9uCdl1Xro0-24" edge="1">
                    <mxGeometry relative="1" as="geometry"/>
                </mxCell>
                <mxCell id="YliF6_khSp9uCdl1Xro0-27" value="Client Personas" style="rounded=1;whiteSpace=wrap;html=1;arcSize=17;fillColor=#cce5ff;strokeColor=#36393d;fontColor=#080808;labelBackgroundColor=none;" parent="1" vertex="1">
                    <mxGeometry x="631" y="88" width="100" height="40" as="geometry"/>
                </mxCell>
                <mxCell id="dlf6kWhZrDI7cNF16P7J-2" value="Verification and endorsement of workouts" style="text;html=1;strokeColor=none;fillColor=none;align=center;verticalAlign=middle;whiteSpace=wrap;rounded=0;fontColor=#18141D;" parent="1" vertex="1">
                    <mxGeometry x="1131" y="-132" width="140" height="50" as="geometry"/>
                </mxCell>
                <mxCell id="dlf6kWhZrDI7cNF16P7J-5" value="Opportunity to advertise fitness influencer's brands" style="text;html=1;strokeColor=none;fillColor=none;align=center;verticalAlign=middle;whiteSpace=wrap;rounded=0;fontColor=#18141D;" parent="1" vertex="1">
                    <mxGeometry x="1131" y="-52" width="150" height="40" as="geometry"/>
                </mxCell>
                <mxCell id="dlf6kWhZrDI7cNF16P7J-8" value="Cleanliness level of the workstation so that Fincoln knows when to clean them" style="text;html=1;strokeColor=none;fillColor=none;align=center;verticalAlign=middle;whiteSpace=wrap;rounded=0;fontColor=#1a1919;" parent="1" vertex="1">
                    <mxGeometry x="1121" y="18" width="200" height="50" as="geometry"/>
                </mxCell>
                <mxCell id="dlf6kWhZrDI7cNF16P7J-9" value="Quick and easy process to make reviews that is accessible from any device" style="text;html=1;strokeColor=none;fillColor=none;align=center;verticalAlign=middle;whiteSpace=wrap;rounded=0;fontColor=#18141D;" parent="1" vertex="1">
                    <mxGeometry x="1131" y="98" width="160" height="40" as="geometry"/>
                </mxCell>
                <mxCell id="dlf6kWhZrDI7cNF16P7J-10" value="Be able to book a workout with someone in the area at a work station" style="text;html=1;strokeColor=none;fillColor=none;align=center;verticalAlign=middle;whiteSpace=wrap;rounded=0;fontColor=#18141D;" parent="1" vertex="1">
                    <mxGeometry x="1131" y="158" width="150" height="50" as="geometry"/>
                </mxCell>
                <mxCell id="dlf6kWhZrDI7cNF16P7J-19" style="edgeStyle=orthogonalEdgeStyle;rounded=0;orthogonalLoop=1;jettySize=auto;html=1;exitX=1;exitY=0.5;exitDx=0;exitDy=0;entryX=0;entryY=0.5;entryDx=0;entryDy=0;strokeColor=#18141D;" parent="1" source="dlf6kWhZrDI7cNF16P7J-15" target="dlf6kWhZrDI7cNF16P7J-17" edge="1">
                    <mxGeometry relative="1" as="geometry">
                        <mxPoint x="1291" y="248.0000000000001" as="targetPoint"/>
                    </mxGeometry>
                </mxCell>
                <mxCell id="dlf6kWhZrDI7cNF16P7J-20" style="edgeStyle=orthogonalEdgeStyle;rounded=0;orthogonalLoop=1;jettySize=auto;html=1;exitX=1;exitY=0.5;exitDx=0;exitDy=0;strokeColor=#18141D;" parent="1" source="dlf6kWhZrDI7cNF16P7J-15" target="dlf6kWhZrDI7cNF16P7J-18" edge="1">
                    <mxGeometry relative="1" as="geometry"/>
                </mxCell>
                <mxCell id="dlf6kWhZrDI7cNF16P7J-15" value="Pre-made workouts that are generally tailored to an average person" style="text;html=1;strokeColor=none;fillColor=none;align=center;verticalAlign=middle;whiteSpace=wrap;rounded=0;fontColor=#18141D;" parent="1" vertex="1">
                    <mxGeometry x="1071" y="263" width="170" height="60" as="geometry"/>
                </mxCell>
                <mxCell id="dlf6kWhZrDI7cNF16P7J-17" value="Fat loss" style="text;html=1;strokeColor=none;fillColor=none;align=center;verticalAlign=middle;whiteSpace=wrap;rounded=0;fontColor=#18141D;" parent="1" vertex="1">
                    <mxGeometry x="1291" y="218" width="60" height="30" as="geometry"/>
                </mxCell>
                <mxCell id="dlf6kWhZrDI7cNF16P7J-18" value="Muscle gain" style="text;html=1;strokeColor=none;fillColor=none;align=center;verticalAlign=middle;whiteSpace=wrap;rounded=0;fontColor=#18141D;" parent="1" vertex="1">
                    <mxGeometry x="1291" y="283" width="60" height="30" as="geometry"/>
                </mxCell>
                <mxCell id="dlf6kWhZrDI7cNF16P7J-22" value="Cleanliness rating for all users to see so they get an idea of the state the workout station is" style="text;html=1;strokeColor=none;fillColor=none;align=center;verticalAlign=middle;whiteSpace=wrap;rounded=0;fontColor=#18141D;" parent="1" vertex="1">
                    <mxGeometry x="1071" y="357" width="159" height="50" as="geometry"/>
                </mxCell>
                <mxCell id="imT7v0ZczQQQ6CIAgGnJ-1" style="edgeStyle=orthogonalEdgeStyle;rounded=0;orthogonalLoop=1;jettySize=auto;html=1;exitX=0;exitY=0.5;exitDx=0;exitDy=0;entryX=1;entryY=0.5;entryDx=0;entryDy=0;strokeColor=#18141D;" parent="1" source="dlf6kWhZrDI7cNF16P7J-24" target="dlf6kWhZrDI7cNF16P7J-29" edge="1">
                    <mxGeometry relative="1" as="geometry">
                        <mxPoint x="-212" y="853" as="sourcePoint"/>
                    </mxGeometry>
                </mxCell>
                <mxCell id="imT7v0ZczQQQ6CIAgGnJ-2" style="edgeStyle=orthogonalEdgeStyle;rounded=0;orthogonalLoop=1;jettySize=auto;html=1;exitX=0;exitY=0.5;exitDx=0;exitDy=0;entryX=1;entryY=0.5;entryDx=0;entryDy=0;strokeColor=#18141D;" parent="1" source="dlf6kWhZrDI7cNF16P7J-24" target="dlf6kWhZrDI7cNF16P7J-28" edge="1">
                    <mxGeometry relative="1" as="geometry">
                        <mxPoint x="-212" y="853" as="sourcePoint"/>
                    </mxGeometry>
                </mxCell>
                <mxCell id="imT7v0ZczQQQ6CIAgGnJ-3" style="edgeStyle=orthogonalEdgeStyle;rounded=0;orthogonalLoop=1;jettySize=auto;html=1;exitX=0;exitY=0.5;exitDx=0;exitDy=0;strokeColor=#18141D;" parent="1" source="dlf6kWhZrDI7cNF16P7J-24" target="dlf6kWhZrDI7cNF16P7J-27" edge="1">
                    <mxGeometry relative="1" as="geometry">
                        <Array as="points">
                            <mxPoint x="-329" y="808"/>
                            <mxPoint x="-329" y="743"/>
                        </Array>
                    </mxGeometry>
                </mxCell>
                <mxCell id="ngkRSRsx5163floqqhg3-12" style="edgeStyle=orthogonalEdgeStyle;rounded=0;html=1;exitX=0;exitY=0.5;exitDx=0;exitDy=0;entryX=1;entryY=0.5;entryDx=0;entryDy=0;strokeColor=#18141D;" parent="1" source="dlf6kWhZrDI7cNF16P7J-24" target="ngkRSRsx5163floqqhg3-11" edge="1">
                    <mxGeometry relative="1" as="geometry"/>
                </mxCell>
                <mxCell id="dlf6kWhZrDI7cNF16P7J-24" value="Data Interface" style="rounded=1;whiteSpace=wrap;html=1;arcSize=17;fillColor=#cce5ff;strokeColor=#36393d;fontColor=#080808;labelBackgroundColor=none;" parent="1" vertex="1">
                    <mxGeometry x="-251" y="786" width="111" height="43" as="geometry"/>
                </mxCell>
                <mxCell id="dlf6kWhZrDI7cNF16P7J-27" value="&lt;h1&gt;Admin&lt;/h1&gt;&lt;div&gt;Able to see all users, fitness stations and search and look for any exercises. Able to manage the database on pHpmyadmin. Able to create pre-made workouts and post them for everyone to be able to view and follow along. Able to see fitness station cleanliness to make a job for employees.&lt;/div&gt;" style="text;html=1;strokeColor=none;fillColor=none;spacing=5;spacingTop=-20;whiteSpace=wrap;overflow=hidden;rounded=0;fontColor=#18141D;" parent="1" vertex="1">
                    <mxGeometry x="-662" y="683" width="263" height="160" as="geometry"/>
                </mxCell>
                <mxCell id="dlf6kWhZrDI7cNF16P7J-28" value="&lt;h1&gt;Clients&lt;/h1&gt;&lt;div&gt;Able to see their own profiles, all fitness stations, and able to search for exercises. Able to view workouts that admin posts and create reviews and rate cleanliness.&lt;/div&gt;" style="text;html=1;strokeColor=none;fillColor=none;spacing=5;spacingTop=-20;whiteSpace=wrap;overflow=hidden;rounded=0;fontColor=#18141D;" parent="1" vertex="1">
                    <mxGeometry x="-600" y="873" width="193" height="140" as="geometry"/>
                </mxCell>
                <mxCell id="dlf6kWhZrDI7cNF16P7J-29" value="&lt;h1&gt;Employees&lt;/h1&gt;&lt;div&gt;Able to view all fitness stations and exercises API as well as cleanliness and any reviews of a fitness station so they know where they need to clean.&lt;/div&gt;" style="text;html=1;strokeColor=none;fillColor=none;spacing=5;spacingTop=-20;whiteSpace=wrap;overflow=hidden;rounded=0;fontColor=#18141D;" parent="1" vertex="1">
                    <mxGeometry x="-598.5" y="1063" width="190" height="120" as="geometry"/>
                </mxCell>
                <mxCell id="KDUoEc-DlCdJR0T2SsKX-3" value="Accessibility Guidlines" style="rounded=1;whiteSpace=wrap;html=1;arcSize=17;fillColor=#ffcc99;strokeColor=#36393d;labelBackgroundColor=none;fontColor=#322f2f;" parent="1" vertex="1">
                    <mxGeometry x="926" y="442" width="100" height="40" as="geometry"/>
                </mxCell>
                <mxCell id="KDUoEc-DlCdJR0T2SsKX-6" value="Efficiently access and create data" style="rounded=1;whiteSpace=wrap;html=1;arcSize=17;fillColor=#ffcc99;strokeColor=#36393d;labelBackgroundColor=none;fontColor=#322f2f;" parent="1" vertex="1">
                    <mxGeometry x="926" y="526" width="100" height="40" as="geometry"/>
                </mxCell>
                <mxCell id="KDUoEc-DlCdJR0T2SsKX-10" value="Adhere to the Australian Privacy Principles" style="rounded=1;whiteSpace=wrap;html=1;arcSize=17;labelBackgroundColor=none;fillColor=#ffcc99;strokeColor=#36393d;fontColor=#322f2f;" parent="1" vertex="1">
                    <mxGeometry x="-473" y="323" width="151" height="44" as="geometry"/>
                </mxCell>
                <mxCell id="KDUoEc-DlCdJR0T2SsKX-12" value="Follow the Australian Government Security Principles" style="rounded=1;whiteSpace=wrap;html=1;arcSize=17;labelBackgroundColor=none;fillColor=#ffcc99;strokeColor=#36393d;fontColor=#322f2f;" parent="1" vertex="1">
                    <mxGeometry x="-486" y="248" width="164" height="60" as="geometry"/>
                </mxCell>
                <mxCell id="KDUoEc-DlCdJR0T2SsKX-21" style="edgeStyle=orthogonalEdgeStyle;rounded=0;orthogonalLoop=1;jettySize=auto;html=1;exitX=1;exitY=0.5;exitDx=0;exitDy=0;entryX=0;entryY=0.5;entryDx=0;entryDy=0;strokeColor=#18141D;" parent="1" source="KDUoEc-DlCdJR0T2SsKX-15" target="KDUoEc-DlCdJR0T2SsKX-20" edge="1">
                    <mxGeometry relative="1" as="geometry"/>
                </mxCell>
                <mxCell id="KDUoEc-DlCdJR0T2SsKX-23" style="edgeStyle=orthogonalEdgeStyle;rounded=0;orthogonalLoop=1;jettySize=auto;html=1;exitX=1;exitY=0.5;exitDx=0;exitDy=0;entryX=0;entryY=0.5;entryDx=0;entryDy=0;strokeColor=#18141D;" parent="1" source="KDUoEc-DlCdJR0T2SsKX-15" target="KDUoEc-DlCdJR0T2SsKX-22" edge="1">
                    <mxGeometry relative="1" as="geometry"/>
                </mxCell>
                <mxCell id="KDUoEc-DlCdJR0T2SsKX-15" value="Help the public get active and promote fitness for general health" style="rounded=1;whiteSpace=wrap;html=1;arcSize=17;fillColor=#cce5ff;strokeColor=#36393d;fontColor=#080808;labelBackgroundColor=none;" parent="1" vertex="1">
                    <mxGeometry x="708" y="950" width="164" height="74" as="geometry"/>
                </mxCell>
                <mxCell id="KDUoEc-DlCdJR0T2SsKX-20" value="Allow custom workouts that can be shared between all users" style="rounded=1;whiteSpace=wrap;html=1;arcSize=17;fillColor=#ffcc99;strokeColor=#36393d;labelBackgroundColor=none;fontColor=#322f2f;" parent="1" vertex="1">
                    <mxGeometry x="961" y="896" width="146" height="58" as="geometry"/>
                </mxCell>
                <mxCell id="KDUoEc-DlCdJR0T2SsKX-22" value="Let users know which gym they can do a specific workout at" style="rounded=1;whiteSpace=wrap;html=1;arcSize=17;fillColor=#ffcc99;strokeColor=#36393d;labelBackgroundColor=none;fontColor=#322f2f;" parent="1" vertex="1">
                    <mxGeometry x="961" y="1031.5" width="150" height="51" as="geometry"/>
                </mxCell>
                <mxCell id="KDUoEc-DlCdJR0T2SsKX-26" value="Able to transfer and change between formats of data to present it to the user" style="rounded=1;whiteSpace=wrap;html=1;arcSize=17;fillColor=#ffcc99;labelBackgroundColor=none;strokeColor=#36393d;fontColor=#322f2f;" parent="1" vertex="1">
                    <mxGeometry x="-71" y="142" width="168" height="55" as="geometry"/>
                </mxCell>
                <mxCell id="ngkRSRsx5163floqqhg3-7" style="edgeStyle=orthogonalEdgeStyle;html=1;exitX=0;exitY=0.5;exitDx=0;exitDy=0;entryX=1;entryY=0.5;entryDx=0;entryDy=0;strokeColor=#18141D;rounded=0;labelBackgroundColor=#FFFFFF;fontColor=#18141D;" parent="1" source="ngkRSRsx5163floqqhg3-3" target="ngkRSRsx5163floqqhg3-6" edge="1">
                    <mxGeometry relative="1" as="geometry"/>
                </mxCell>
                <mxCell id="ngkRSRsx5163floqqhg3-3" value="Security Requirements" style="rounded=1;whiteSpace=wrap;html=1;fillColor=#cce5ff;labelBackgroundColor=none;strokeColor=#36393d;fontColor=#080808;" parent="1" vertex="1">
                    <mxGeometry x="-219" y="457" width="120" height="60" as="geometry"/>
                </mxCell>
                <mxCell id="ngkRSRsx5163floqqhg3-6" value="Securely store and request user data" style="rounded=1;whiteSpace=wrap;html=1;arcSize=17;labelBackgroundColor=none;fillColor=#ffcc99;strokeColor=#36393d;fontColor=#322f2f;" parent="1" vertex="1">
                    <mxGeometry x="-473" y="391" width="151" height="44" as="geometry"/>
                </mxCell>
                <mxCell id="ngkRSRsx5163floqqhg3-11" value="Display multiple types of data in a readable format for user" style="rounded=1;whiteSpace=wrap;html=1;fillColor=#ffcc99;labelBackgroundColor=none;strokeColor=#36393d;fontColor=#322f2f;" parent="1" vertex="1">
                    <mxGeometry x="-527" y="576" width="120" height="60" as="geometry"/>
                </mxCell>
                <mxCell id="ngkRSRsx5163floqqhg3-19" style="edgeStyle=orthogonalEdgeStyle;rounded=0;html=1;exitX=0;exitY=0.5;exitDx=0;exitDy=0;entryX=1;entryY=0.5;entryDx=0;entryDy=0;labelBackgroundColor=#FFFFFF;strokeColor=#18141D;fontColor=#1a1919;" parent="1" source="ngkRSRsx5163floqqhg3-13" target="ngkRSRsx5163floqqhg3-18" edge="1">
                    <mxGeometry relative="1" as="geometry"/>
                </mxCell>
                <mxCell id="ngkRSRsx5163floqqhg3-13" value="Data Environment" style="rounded=1;whiteSpace=wrap;html=1;labelBackgroundColor=none;strokeColor=#36393d;fillColor=#cce5ff;fontColor=#080808;" parent="1" vertex="1">
                    <mxGeometry x="-371" y="104" width="120" height="60" as="geometry"/>
                </mxCell>
                <mxCell id="ngkRSRsx5163floqqhg3-26" style="edgeStyle=orthogonalEdgeStyle;rounded=0;html=1;exitX=0;exitY=0.5;exitDx=0;exitDy=0;entryX=1;entryY=0.5;entryDx=0;entryDy=0;labelBackgroundColor=#FFFFFF;strokeColor=#18141D;fontColor=#1a1919;" parent="1" source="ngkRSRsx5163floqqhg3-18" target="ngkRSRsx5163floqqhg3-21" edge="1">
                    <mxGeometry relative="1" as="geometry"/>
                </mxCell>
                <mxCell id="ngkRSRsx5163floqqhg3-27" style="edgeStyle=orthogonalEdgeStyle;rounded=0;html=1;exitX=0;exitY=0.5;exitDx=0;exitDy=0;entryX=1;entryY=0.5;entryDx=0;entryDy=0;labelBackgroundColor=#FFFFFF;strokeColor=#18141D;fontColor=#1a1919;" parent="1" source="ngkRSRsx5163floqqhg3-18" target="ngkRSRsx5163floqqhg3-24" edge="1">
                    <mxGeometry relative="1" as="geometry"/>
                </mxCell>
                <mxCell id="ngkRSRsx5163floqqhg3-28" style="edgeStyle=orthogonalEdgeStyle;rounded=0;html=1;exitX=0;exitY=0.5;exitDx=0;exitDy=0;entryX=1;entryY=0.5;entryDx=0;entryDy=0;labelBackgroundColor=#FFFFFF;strokeColor=#18141D;fontColor=#1a1919;" parent="1" source="ngkRSRsx5163floqqhg3-18" target="ngkRSRsx5163floqqhg3-25" edge="1">
                    <mxGeometry relative="1" as="geometry"/>
                </mxCell>
                <mxCell id="ngkRSRsx5163floqqhg3-18" value="Must collect data and store in database" style="rounded=1;whiteSpace=wrap;html=1;labelBackgroundColor=none;strokeColor=#36393d;fillColor=#cdeb8b;fontColor=#0a0a0a;" parent="1" vertex="1">
                    <mxGeometry x="-582" y="-67" width="120" height="60" as="geometry"/>
                </mxCell>
                <mxCell id="ngkRSRsx5163floqqhg3-21" value="User Data" style="rounded=1;whiteSpace=wrap;html=1;labelBackgroundColor=none;strokeColor=#36393d;fillColor=#ffcc99;fontColor=#322f2f;" parent="1" vertex="1">
                    <mxGeometry x="-725" y="-109" width="86" height="31" as="geometry"/>
                </mxCell>
                <mxCell id="ngkRSRsx5163floqqhg3-24" value="Exercise Data" style="rounded=1;whiteSpace=wrap;html=1;labelBackgroundColor=none;strokeColor=#36393d;fillColor=#ffcc99;fontColor=#322f2f;" parent="1" vertex="1">
                    <mxGeometry x="-725" y="-52.5" width="86" height="31" as="geometry"/>
                </mxCell>
                <mxCell id="ngkRSRsx5163floqqhg3-25" value="Gym Data" style="rounded=1;whiteSpace=wrap;html=1;labelBackgroundColor=none;strokeColor=#36393d;fillColor=#ffcc99;fontColor=#322f2f;" parent="1" vertex="1">
                    <mxGeometry x="-725" y="15" width="86" height="31" as="geometry"/>
                </mxCell>
                <mxCell id="ngkRSRsx5163floqqhg3-35" value="" style="edgeStyle=orthogonalEdgeStyle;rounded=0;html=1;labelBackgroundColor=#FFFFFF;strokeColor=#18141D;fontColor=#1a1919;entryX=0;entryY=0.5;entryDx=0;entryDy=0;" parent="1" source="ngkRSRsx5163floqqhg3-30" target="ngkRSRsx5163floqqhg3-32" edge="1">
                    <mxGeometry relative="1" as="geometry"/>
                </mxCell>
                <mxCell id="ngkRSRsx5163floqqhg3-38" style="edgeStyle=orthogonalEdgeStyle;rounded=0;html=1;exitX=1;exitY=0.5;exitDx=0;exitDy=0;entryX=0;entryY=0.5;entryDx=0;entryDy=0;labelBackgroundColor=#FFFFFF;strokeColor=#18141D;fontColor=#1a1919;" parent="1" source="ngkRSRsx5163floqqhg3-30" target="ngkRSRsx5163floqqhg3-36" edge="1">
                    <mxGeometry relative="1" as="geometry"/>
                </mxCell>
                <mxCell id="ngkRSRsx5163floqqhg3-30" value="Client Constraints" style="rounded=1;whiteSpace=wrap;html=1;arcSize=17;fillColor=#cce5ff;strokeColor=#36393d;fontColor=#080808;labelBackgroundColor=none;" parent="1" vertex="1">
                    <mxGeometry x="768" y="640" width="100" height="40" as="geometry"/>
                </mxCell>
                <mxCell id="ngkRSRsx5163floqqhg3-32" value="Time: 2 months" style="rounded=1;whiteSpace=wrap;html=1;arcSize=17;fillColor=#ffcc99;strokeColor=#36393d;labelBackgroundColor=none;fontColor=#322f2f;" parent="1" vertex="1">
                    <mxGeometry x="1052" y="580" width="100" height="40" as="geometry"/>
                </mxCell>
                <mxCell id="ngkRSRsx5163floqqhg3-36" value="Costs for development must be kept to a minimum" style="rounded=1;whiteSpace=wrap;html=1;arcSize=17;fillColor=#ffcc99;strokeColor=#36393d;labelBackgroundColor=none;fontColor=#322f2f;" parent="1" vertex="1">
                    <mxGeometry x="1052" y="659" width="144" height="60" as="geometry"/>
                </mxCell>
                <mxCell id="ngkRSRsx5163floqqhg3-40" value="Create a solution that is suited for deployment and can be scaled easily" style="rounded=1;whiteSpace=wrap;html=1;arcSize=17;fillColor=#ffcc99;strokeColor=#36393d;labelBackgroundColor=none;fontColor=#322f2f;" parent="1" vertex="1">
                    <mxGeometry x="778" y="764" width="154" height="63" as="geometry"/>
                </mxCell>
            </root>
        </mxGraphModel>
    </diagram>
    <diagram id="7gT9Cjg0dxE58FpDKtef" name="Application Layout">
        <mxGraphModel dx="1179" dy="862" grid="0" gridSize="10" guides="1" tooltips="1" connect="1" arrows="1" fold="1" page="0" pageScale="1" pageWidth="827" pageHeight="1169" background="none" math="0" shadow="0">
            <root>
                <mxCell id="0"/>
                <mxCell id="1" parent="0"/>
                <mxCell id="7CIRDp3kSuk7Mwjj5lAP-1" value="User" style="whiteSpace=wrap;html=1;" parent="1" vertex="1">
                    <mxGeometry x="230" y="220" width="90" height="40" as="geometry"/>
                </mxCell>
                <mxCell id="7CIRDp3kSuk7Mwjj5lAP-2" value="Front-end" style="whiteSpace=wrap;html=1;" parent="1" vertex="1">
                    <mxGeometry x="450" y="220" width="90" height="40" as="geometry"/>
                </mxCell>
                <mxCell id="7CIRDp3kSuk7Mwjj5lAP-3" value="Back-end" style="whiteSpace=wrap;html=1;" parent="1" vertex="1">
                    <mxGeometry x="620" y="220" width="90" height="40" as="geometry"/>
                </mxCell>
                <mxCell id="7CIRDp3kSuk7Mwjj5lAP-4" value="Exercise API" style="whiteSpace=wrap;html=1;" parent="1" vertex="1">
                    <mxGeometry x="790" y="110" width="90" height="40" as="geometry"/>
                </mxCell>
                <mxCell id="7CIRDp3kSuk7Mwjj5lAP-5" value="MySQL Database" style="whiteSpace=wrap;html=1;" parent="1" vertex="1">
                    <mxGeometry x="790" y="300" width="90" height="40" as="geometry"/>
                </mxCell>
                <mxCell id="7CIRDp3kSuk7Mwjj5lAP-6" value="Interaction" style="edgeStyle=none;orthogonalLoop=1;jettySize=auto;html=1;rounded=0;exitX=1;exitY=0.25;exitDx=0;exitDy=0;entryX=0;entryY=0.25;entryDx=0;entryDy=0;" parent="1" source="7CIRDp3kSuk7Mwjj5lAP-1" target="7CIRDp3kSuk7Mwjj5lAP-2" edge="1">
                    <mxGeometry width="80" relative="1" as="geometry">
                        <mxPoint x="390" y="240" as="sourcePoint"/>
                        <mxPoint x="470" y="240" as="targetPoint"/>
                        <Array as="points"/>
                    </mxGeometry>
                </mxCell>
                <mxCell id="7CIRDp3kSuk7Mwjj5lAP-8" value="" style="edgeStyle=none;orthogonalLoop=1;jettySize=auto;html=1;rounded=0;entryX=1;entryY=0.75;entryDx=0;entryDy=0;exitX=0;exitY=0.75;exitDx=0;exitDy=0;" parent="1" source="7CIRDp3kSuk7Mwjj5lAP-2" target="7CIRDp3kSuk7Mwjj5lAP-1" edge="1">
                    <mxGeometry width="80" relative="1" as="geometry">
                        <mxPoint x="410" y="190" as="sourcePoint"/>
                        <mxPoint x="490" y="190" as="targetPoint"/>
                        <Array as="points"/>
                    </mxGeometry>
                </mxCell>
                <mxCell id="7CIRDp3kSuk7Mwjj5lAP-20" value="Displays information" style="edgeLabel;html=1;align=center;verticalAlign=middle;resizable=0;points=[];" parent="7CIRDp3kSuk7Mwjj5lAP-8" vertex="1" connectable="0">
                    <mxGeometry x="0.25" y="-1" relative="1" as="geometry">
                        <mxPoint x="21" y="1" as="offset"/>
                    </mxGeometry>
                </mxCell>
                <mxCell id="7CIRDp3kSuk7Mwjj5lAP-9" value="Request" style="edgeStyle=none;orthogonalLoop=1;jettySize=auto;html=1;rounded=0;exitX=1;exitY=0.25;exitDx=0;exitDy=0;entryX=0;entryY=0.25;entryDx=0;entryDy=0;" parent="1" source="7CIRDp3kSuk7Mwjj5lAP-2" target="7CIRDp3kSuk7Mwjj5lAP-3" edge="1">
                    <mxGeometry width="80" relative="1" as="geometry">
                        <mxPoint x="580" y="210" as="sourcePoint"/>
                        <mxPoint x="660" y="210" as="targetPoint"/>
                        <Array as="points"/>
                    </mxGeometry>
                </mxCell>
                <mxCell id="7CIRDp3kSuk7Mwjj5lAP-10" value="" style="edgeStyle=none;orthogonalLoop=1;jettySize=auto;html=1;rounded=0;entryX=1;entryY=0.75;entryDx=0;entryDy=0;exitX=0;exitY=0.75;exitDx=0;exitDy=0;" parent="1" source="7CIRDp3kSuk7Mwjj5lAP-3" target="7CIRDp3kSuk7Mwjj5lAP-2" edge="1">
                    <mxGeometry width="80" relative="1" as="geometry">
                        <mxPoint x="610" y="300" as="sourcePoint"/>
                        <mxPoint x="690" y="300" as="targetPoint"/>
                        <Array as="points"/>
                    </mxGeometry>
                </mxCell>
                <mxCell id="7CIRDp3kSuk7Mwjj5lAP-19" value="Response" style="edgeLabel;html=1;align=center;verticalAlign=middle;resizable=0;points=[];" parent="7CIRDp3kSuk7Mwjj5lAP-10" vertex="1" connectable="0">
                    <mxGeometry x="0.15" y="1" relative="1" as="geometry">
                        <mxPoint x="6" as="offset"/>
                    </mxGeometry>
                </mxCell>
                <mxCell id="7CIRDp3kSuk7Mwjj5lAP-11" value="" style="edgeStyle=none;orthogonalLoop=1;jettySize=auto;html=1;rounded=0;exitX=1;exitY=0.25;exitDx=0;exitDy=0;entryX=0;entryY=0.25;entryDx=0;entryDy=0;" parent="1" source="7CIRDp3kSuk7Mwjj5lAP-3" target="7CIRDp3kSuk7Mwjj5lAP-4" edge="1">
                    <mxGeometry width="80" relative="1" as="geometry">
                        <mxPoint x="810" y="250" as="sourcePoint"/>
                        <mxPoint x="890" y="250" as="targetPoint"/>
                        <Array as="points"/>
                    </mxGeometry>
                </mxCell>
                <mxCell id="7CIRDp3kSuk7Mwjj5lAP-18" value="Request" style="edgeLabel;html=1;align=center;verticalAlign=middle;resizable=0;points=[];" parent="7CIRDp3kSuk7Mwjj5lAP-11" vertex="1" connectable="0">
                    <mxGeometry x="0.0795" relative="1" as="geometry">
                        <mxPoint x="-33" y="-11" as="offset"/>
                    </mxGeometry>
                </mxCell>
                <mxCell id="7CIRDp3kSuk7Mwjj5lAP-12" value="Response" style="edgeStyle=none;orthogonalLoop=1;jettySize=auto;html=1;rounded=0;entryX=1;entryY=0.5;entryDx=0;entryDy=0;exitX=0;exitY=0.5;exitDx=0;exitDy=0;" parent="1" source="7CIRDp3kSuk7Mwjj5lAP-4" target="7CIRDp3kSuk7Mwjj5lAP-3" edge="1">
                    <mxGeometry x="-0.2" y="27" width="80" relative="1" as="geometry">
                        <mxPoint x="750" y="240" as="sourcePoint"/>
                        <mxPoint x="830" y="240" as="targetPoint"/>
                        <Array as="points"/>
                        <mxPoint as="offset"/>
                    </mxGeometry>
                </mxCell>
                <mxCell id="7CIRDp3kSuk7Mwjj5lAP-14" value="Connection" style="edgeStyle=none;orthogonalLoop=1;jettySize=auto;html=1;rounded=0;entryX=1;entryY=0.75;entryDx=0;entryDy=0;exitX=0;exitY=0.5;exitDx=0;exitDy=0;startArrow=classic;startFill=1;endArrow=none;endFill=0;" parent="1" source="7CIRDp3kSuk7Mwjj5lAP-5" target="7CIRDp3kSuk7Mwjj5lAP-3" edge="1">
                    <mxGeometry width="80" relative="1" as="geometry">
                        <mxPoint x="770" y="270" as="sourcePoint"/>
                        <mxPoint x="850" y="270" as="targetPoint"/>
                        <Array as="points"/>
                    </mxGeometry>
                </mxCell>
                <mxCell id="7CIRDp3kSuk7Mwjj5lAP-16" value="Data.json GC Gym Data" style="whiteSpace=wrap;html=1;" parent="1" vertex="1">
                    <mxGeometry x="790" y="220" width="90" height="40" as="geometry"/>
                </mxCell>
                <mxCell id="7CIRDp3kSuk7Mwjj5lAP-17" value="Imported" style="edgeStyle=none;orthogonalLoop=1;jettySize=auto;html=1;rounded=0;entryX=1;entryY=0.5;entryDx=0;entryDy=0;exitX=0;exitY=0.5;exitDx=0;exitDy=0;" parent="1" source="7CIRDp3kSuk7Mwjj5lAP-16" target="7CIRDp3kSuk7Mwjj5lAP-3" edge="1">
                    <mxGeometry width="80" relative="1" as="geometry">
                        <mxPoint x="670" y="350" as="sourcePoint"/>
                        <mxPoint x="750" y="350" as="targetPoint"/>
                        <Array as="points"/>
                    </mxGeometry>
                </mxCell>
                <mxCell id="toHgryqzJ8kfFQV21pqO-2" value="&lt;font size=&quot;3&quot;&gt;&lt;b&gt;&lt;u&gt;Web Application Layout&lt;/u&gt;&lt;/b&gt;&lt;/font&gt;" style="text;strokeColor=none;align=center;fillColor=none;html=1;verticalAlign=middle;whiteSpace=wrap;rounded=0;" parent="1" vertex="1">
                    <mxGeometry x="365" y="16" width="247" height="48.5" as="geometry"/>
                </mxCell>
                <mxCell id="toHgryqzJ8kfFQV21pqO-3" value="React js" style="text;strokeColor=none;align=center;fillColor=none;html=1;verticalAlign=middle;whiteSpace=wrap;rounded=0;" parent="1" vertex="1">
                    <mxGeometry x="466" y="268" width="60" height="30" as="geometry"/>
                </mxCell>
                <mxCell id="toHgryqzJ8kfFQV21pqO-4" value="Nodejs" style="text;strokeColor=none;align=center;fillColor=none;html=1;verticalAlign=middle;whiteSpace=wrap;rounded=0;" parent="1" vertex="1">
                    <mxGeometry x="636" y="268" width="60" height="30" as="geometry"/>
                </mxCell>
            </root>
        </mxGraphModel>
    </diagram>
    <diagram name="IPO chart" id="BCIdy3dncQPlOARNzbFY">
        <mxGraphModel dx="1626" dy="718" grid="1" gridSize="10" guides="1" tooltips="1" connect="1" arrows="1" fold="1" page="1" pageScale="1" pageWidth="827" pageHeight="1169" background="none" math="0" shadow="0">
            <root>
                <mxCell id="0"/>
                <mxCell id="1" parent="0"/>
                <mxCell id="r86Ns14ribVUxwDp_7WT-15" style="edgeStyle=orthogonalEdgeStyle;rounded=0;orthogonalLoop=1;jettySize=auto;html=1;exitX=1;exitY=0.5;exitDx=0;exitDy=0;entryX=0;entryY=0.5;entryDx=0;entryDy=0;" parent="1" source="r86Ns14ribVUxwDp_7WT-2" target="r86Ns14ribVUxwDp_7WT-9" edge="1">
                    <mxGeometry relative="1" as="geometry">
                        <mxPoint x="120" y="375" as="targetPoint"/>
                        <Array as="points">
                            <mxPoint x="190" y="360"/>
                            <mxPoint x="190" y="320"/>
                            <mxPoint x="340" y="320"/>
                        </Array>
                    </mxGeometry>
                </mxCell>
                <mxCell id="2vzL8tS65KQvjI3MEhgV-2" style="edgeStyle=orthogonalEdgeStyle;rounded=0;orthogonalLoop=1;jettySize=auto;html=1;exitX=1;exitY=0.5;exitDx=0;exitDy=0;entryX=0;entryY=0.25;entryDx=0;entryDy=0;" parent="1" source="r86Ns14ribVUxwDp_7WT-2" target="r86Ns14ribVUxwDp_7WT-18" edge="1">
                    <mxGeometry relative="1" as="geometry">
                        <Array as="points">
                            <mxPoint x="200" y="360"/>
                            <mxPoint x="200" y="397"/>
                        </Array>
                    </mxGeometry>
                </mxCell>
                <mxCell id="r86Ns14ribVUxwDp_7WT-2" value="User" style="whiteSpace=wrap;html=1;" parent="1" vertex="1">
                    <mxGeometry x="-50" y="340" width="90" height="40" as="geometry"/>
                </mxCell>
                <mxCell id="2vzL8tS65KQvjI3MEhgV-10" value="Response" style="edgeStyle=orthogonalEdgeStyle;rounded=0;orthogonalLoop=1;jettySize=auto;html=1;exitX=1;exitY=0.5;exitDx=0;exitDy=0;entryX=0;entryY=0.25;entryDx=0;entryDy=0;" parent="1" source="r86Ns14ribVUxwDp_7WT-3" target="2vzL8tS65KQvjI3MEhgV-3" edge="1">
                    <mxGeometry x="-0.1242" y="10" relative="1" as="geometry">
                        <mxPoint x="270" y="190" as="targetPoint"/>
                        <Array as="points">
                            <mxPoint x="40" y="250"/>
                            <mxPoint x="190" y="250"/>
                            <mxPoint x="190" y="237"/>
                            <mxPoint x="240" y="237"/>
                            <mxPoint x="240" y="213"/>
                            <mxPoint x="350" y="213"/>
                        </Array>
                        <mxPoint x="1" as="offset"/>
                    </mxGeometry>
                </mxCell>
                <mxCell id="r86Ns14ribVUxwDp_7WT-3" value="API" style="whiteSpace=wrap;html=1;" parent="1" vertex="1">
                    <mxGeometry x="-50" y="260" width="90" height="40" as="geometry"/>
                </mxCell>
                <mxCell id="r86Ns14ribVUxwDp_7WT-20" value="Users Table" style="edgeStyle=orthogonalEdgeStyle;rounded=0;orthogonalLoop=1;jettySize=auto;html=1;exitX=1;exitY=0.5;exitDx=0;exitDy=0;entryX=0;entryY=0.5;entryDx=0;entryDy=0;" parent="1" source="r86Ns14ribVUxwDp_7WT-4" target="r86Ns14ribVUxwDp_7WT-9" edge="1">
                    <mxGeometry x="-0.5764" relative="1" as="geometry">
                        <mxPoint x="120.99999999999955" y="375.48" as="targetPoint"/>
                        <Array as="points">
                            <mxPoint x="40" y="430"/>
                            <mxPoint x="180" y="430"/>
                            <mxPoint x="180" y="315"/>
                        </Array>
                        <mxPoint x="-1" as="offset"/>
                    </mxGeometry>
                </mxCell>
                <mxCell id="r86Ns14ribVUxwDp_7WT-21" style="edgeStyle=orthogonalEdgeStyle;rounded=0;orthogonalLoop=1;jettySize=auto;html=1;entryX=0.5;entryY=1;entryDx=0;entryDy=0;endArrow=none;endFill=0;startArrow=classic;startFill=1;exitX=0.5;exitY=1;exitDx=0;exitDy=0;" parent="1" source="r86Ns14ribVUxwDp_7WT-4" target="r86Ns14ribVUxwDp_7WT-18" edge="1">
                    <mxGeometry relative="1" as="geometry">
                        <mxPoint x="270" y="485" as="sourcePoint"/>
                    </mxGeometry>
                </mxCell>
                <mxCell id="2vzL8tS65KQvjI3MEhgV-9" value="Insert Query into Users Table" style="edgeLabel;html=1;align=center;verticalAlign=middle;resizable=0;points=[];" parent="r86Ns14ribVUxwDp_7WT-21" vertex="1" connectable="0">
                    <mxGeometry x="-0.0669" y="1" relative="1" as="geometry">
                        <mxPoint x="-1" as="offset"/>
                    </mxGeometry>
                </mxCell>
                <mxCell id="2vzL8tS65KQvjI3MEhgV-1" style="edgeStyle=orthogonalEdgeStyle;rounded=0;orthogonalLoop=1;jettySize=auto;html=1;exitX=1;exitY=0.5;exitDx=0;exitDy=0;" parent="1" source="r86Ns14ribVUxwDp_7WT-4" target="r86Ns14ribVUxwDp_7WT-18" edge="1">
                    <mxGeometry relative="1" as="geometry">
                        <Array as="points">
                            <mxPoint x="220" y="440"/>
                            <mxPoint x="220" y="405"/>
                        </Array>
                    </mxGeometry>
                </mxCell>
                <mxCell id="r86Ns14ribVUxwDp_7WT-4" value="MySQL Database" style="whiteSpace=wrap;html=1;" parent="1" vertex="1">
                    <mxGeometry x="-50" y="420" width="90" height="40" as="geometry"/>
                </mxCell>
                <mxCell id="r86Ns14ribVUxwDp_7WT-6" value="&lt;font style=&quot;font-size: 14px;&quot;&gt;&lt;u&gt;Inputs&lt;/u&gt;&lt;/font&gt;" style="text;strokeColor=none;align=center;fillColor=none;html=1;verticalAlign=middle;whiteSpace=wrap;rounded=0;" parent="1" vertex="1">
                    <mxGeometry x="-40" y="120" width="60" height="30" as="geometry"/>
                </mxCell>
                <mxCell id="r86Ns14ribVUxwDp_7WT-7" value="&lt;u&gt;Processes&lt;/u&gt;" style="text;strokeColor=none;align=center;fillColor=none;html=1;verticalAlign=middle;whiteSpace=wrap;rounded=0;" parent="1" vertex="1">
                    <mxGeometry x="360" y="130" width="60" height="30" as="geometry"/>
                </mxCell>
                <mxCell id="r86Ns14ribVUxwDp_7WT-8" value="&lt;u&gt;Outputs&lt;/u&gt;" style="text;strokeColor=none;align=center;fillColor=none;html=1;verticalAlign=middle;whiteSpace=wrap;rounded=0;" parent="1" vertex="1">
                    <mxGeometry x="630" y="130" width="60" height="30" as="geometry"/>
                </mxCell>
                <mxCell id="2vzL8tS65KQvjI3MEhgV-7" style="edgeStyle=orthogonalEdgeStyle;rounded=0;orthogonalLoop=1;jettySize=auto;html=1;exitX=1;exitY=0.5;exitDx=0;exitDy=0;entryX=0;entryY=0.5;entryDx=0;entryDy=0;" parent="1" source="r86Ns14ribVUxwDp_7WT-9" target="2vzL8tS65KQvjI3MEhgV-6" edge="1">
                    <mxGeometry relative="1" as="geometry"/>
                </mxCell>
                <mxCell id="r86Ns14ribVUxwDp_7WT-9" value="1.1" style="swimlane;fontStyle=0;childLayout=stackLayout;horizontal=1;startSize=20;fillColor=default;horizontalStack=0;resizeParent=1;resizeParentMax=0;resizeLast=0;collapsible=0;marginBottom=0;swimlaneFillColor=#ffffff;movable=1;resizable=1;rotatable=1;deletable=1;editable=1;locked=0;connectable=1;rounded=1;" parent="1" vertex="1">
                    <mxGeometry x="340" y="290" width="100" height="50" as="geometry"/>
                </mxCell>
                <mxCell id="r86Ns14ribVUxwDp_7WT-10" value="Login" style="text;strokeColor=none;align=center;fillColor=none;html=1;verticalAlign=middle;whiteSpace=wrap;rounded=0;movable=0;resizable=0;rotatable=0;deletable=0;editable=0;locked=1;connectable=0;" parent="r86Ns14ribVUxwDp_7WT-9" vertex="1">
                    <mxGeometry y="20" width="100" height="30" as="geometry"/>
                </mxCell>
                <mxCell id="r86Ns14ribVUxwDp_7WT-17" value="1.2" style="swimlane;fontStyle=0;childLayout=stackLayout;horizontal=1;startSize=20;fillColor=default;horizontalStack=0;resizeParent=1;resizeParentMax=0;resizeLast=0;collapsible=0;marginBottom=0;swimlaneFillColor=#ffffff;rounded=1;" parent="1" vertex="1">
                    <mxGeometry x="340" y="370" width="100" height="50" as="geometry"/>
                </mxCell>
                <mxCell id="r86Ns14ribVUxwDp_7WT-18" value="Signup" style="text;strokeColor=none;align=center;fillColor=default;html=1;verticalAlign=middle;whiteSpace=wrap;rounded=0;" parent="r86Ns14ribVUxwDp_7WT-17" vertex="1">
                    <mxGeometry y="20" width="100" height="30" as="geometry"/>
                </mxCell>
                <mxCell id="2vzL8tS65KQvjI3MEhgV-3" value="2" style="swimlane;fontStyle=0;childLayout=stackLayout;horizontal=1;startSize=20;fillColor=default;horizontalStack=0;resizeParent=1;resizeParentMax=0;resizeLast=0;collapsible=0;marginBottom=0;swimlaneFillColor=#ffffff;rounded=1;" parent="1" vertex="1">
                    <mxGeometry x="350" y="200" width="100" height="50" as="geometry"/>
                </mxCell>
                <mxCell id="2vzL8tS65KQvjI3MEhgV-5" value="Get Data from API" style="text;strokeColor=none;align=center;fillColor=default;html=1;verticalAlign=middle;whiteSpace=wrap;rounded=0;" parent="2vzL8tS65KQvjI3MEhgV-3" vertex="1">
                    <mxGeometry y="20" width="100" height="30" as="geometry"/>
                </mxCell>
                <mxCell id="2vzL8tS65KQvjI3MEhgV-6" value="JSON Output to Frontend which Displays in HTML." style="whiteSpace=wrap;html=1;" parent="1" vertex="1">
                    <mxGeometry x="630" y="330" width="120" height="60" as="geometry"/>
                </mxCell>
                <mxCell id="2vzL8tS65KQvjI3MEhgV-8" style="edgeStyle=orthogonalEdgeStyle;rounded=0;orthogonalLoop=1;jettySize=auto;html=1;exitX=1;exitY=0.25;exitDx=0;exitDy=0;entryX=0;entryY=0.75;entryDx=0;entryDy=0;" parent="1" source="r86Ns14ribVUxwDp_7WT-18" target="2vzL8tS65KQvjI3MEhgV-6" edge="1">
                    <mxGeometry relative="1" as="geometry"/>
                </mxCell>
                <mxCell id="2vzL8tS65KQvjI3MEhgV-11" value="Request" style="edgeStyle=orthogonalEdgeStyle;rounded=0;orthogonalLoop=1;jettySize=auto;html=1;entryX=1;entryY=0.5;entryDx=0;entryDy=0;exitX=0;exitY=0.75;exitDx=0;exitDy=0;" parent="1" source="2vzL8tS65KQvjI3MEhgV-5" target="r86Ns14ribVUxwDp_7WT-3" edge="1">
                    <mxGeometry x="-0.5625" y="10" relative="1" as="geometry">
                        <mxPoint x="350" y="260" as="sourcePoint"/>
                        <Array as="points">
                            <mxPoint x="350" y="250"/>
                            <mxPoint x="320" y="250"/>
                            <mxPoint x="320" y="260"/>
                            <mxPoint x="70" y="260"/>
                            <mxPoint x="70" y="280"/>
                        </Array>
                        <mxPoint x="1" as="offset"/>
                    </mxGeometry>
                </mxCell>
                <mxCell id="2vzL8tS65KQvjI3MEhgV-12" value="Response from API is sent with JSON which the frontend then interacts with and outputs HTML" style="whiteSpace=wrap;html=1;" parent="1" vertex="1">
                    <mxGeometry x="582" y="192" width="180" height="70" as="geometry"/>
                </mxCell>
                <mxCell id="2vzL8tS65KQvjI3MEhgV-13" style="edgeStyle=orthogonalEdgeStyle;rounded=0;orthogonalLoop=1;jettySize=auto;html=1;exitX=1;exitY=0.25;exitDx=0;exitDy=0;" parent="1" source="2vzL8tS65KQvjI3MEhgV-5" target="2vzL8tS65KQvjI3MEhgV-12" edge="1">
                    <mxGeometry relative="1" as="geometry"/>
                </mxCell>
            </root>
        </mxGraphModel>
    </diagram>
    <diagram id="ik_hhh6zyxZGMg2pHZ9w" name="DFD - Login">
        <mxGraphModel dx="1339" dy="832" grid="0" gridSize="10" guides="1" tooltips="1" connect="1" arrows="1" fold="1" page="0" pageScale="1" pageWidth="827" pageHeight="1169" math="0" shadow="0">
            <root>
                <mxCell id="0"/>
                <mxCell id="1" parent="0"/>
                <mxCell id="f5m12TQeuh4ZiwGwLEQG-22" value="Enters Credentials" style="edgeStyle=none;rounded=0;orthogonalLoop=1;jettySize=auto;html=1;exitX=1;exitY=0.5;exitDx=0;exitDy=0;entryX=0;entryY=0.75;entryDx=0;entryDy=0;labelBackgroundColor=#18141D;" parent="1" source="f5m12TQeuh4ZiwGwLEQG-17" target="f5m12TQeuh4ZiwGwLEQG-20" edge="1">
                    <mxGeometry relative="1" as="geometry"/>
                </mxCell>
                <mxCell id="f5m12TQeuh4ZiwGwLEQG-17" value="User" style="html=1;dashed=0;whiteSpace=wrap;labelBackgroundColor=#18141D;" parent="1" vertex="1">
                    <mxGeometry x="-93" y="477" width="100" height="50" as="geometry"/>
                </mxCell>
                <mxCell id="f5m12TQeuh4ZiwGwLEQG-19" value="1.1" style="swimlane;fontStyle=0;childLayout=stackLayout;horizontal=1;startSize=20;fillColor=default;horizontalStack=0;resizeParent=1;resizeParentMax=0;resizeLast=0;collapsible=0;marginBottom=0;swimlaneFillColor=#ffffff;labelBackgroundColor=#18141D;" parent="1" vertex="1">
                    <mxGeometry x="171" y="367" width="100" height="50" as="geometry"/>
                </mxCell>
                <mxCell id="f5m12TQeuh4ZiwGwLEQG-20" value="Variables Stored" style="text;html=1;strokeColor=none;fillColor=default;align=center;verticalAlign=middle;whiteSpace=wrap;rounded=0;labelBackgroundColor=#18141D;" parent="f5m12TQeuh4ZiwGwLEQG-19" vertex="1">
                    <mxGeometry y="20" width="100" height="30" as="geometry"/>
                </mxCell>
                <mxCell id="f5m12TQeuh4ZiwGwLEQG-26" value="Success / Error Message" style="edgeStyle=none;rounded=0;orthogonalLoop=1;jettySize=auto;html=1;exitX=0;exitY=0.75;exitDx=0;exitDy=0;entryX=1;entryY=0.75;entryDx=0;entryDy=0;labelBackgroundColor=#18141D;" parent="1" source="f5m12TQeuh4ZiwGwLEQG-30" target="f5m12TQeuh4ZiwGwLEQG-17" edge="1">
                    <mxGeometry relative="1" as="geometry">
                        <mxPoint x="419" y="514.5" as="sourcePoint"/>
                    </mxGeometry>
                </mxCell>
                <mxCell id="f5m12TQeuh4ZiwGwLEQG-24" value="Sends request with variables" style="edgeStyle=none;rounded=0;orthogonalLoop=1;jettySize=auto;html=1;exitX=1;exitY=0.25;exitDx=0;exitDy=0;entryX=0;entryY=0;entryDx=0;entryDy=0;labelBackgroundColor=#18141D;" parent="1" source="f5m12TQeuh4ZiwGwLEQG-20" target="f5m12TQeuh4ZiwGwLEQG-30" edge="1">
                    <mxGeometry relative="1" as="geometry">
                        <mxPoint x="419" y="489.5" as="targetPoint"/>
                    </mxGeometry>
                </mxCell>
                <mxCell id="f5m12TQeuh4ZiwGwLEQG-28" value="Level 0 Login Process" style="text;html=1;strokeColor=none;fillColor=none;align=center;verticalAlign=middle;whiteSpace=wrap;rounded=0;fontSize=20;" parent="1" vertex="1">
                    <mxGeometry x="-93" y="244" width="269" height="29" as="geometry"/>
                </mxCell>
                <mxCell id="f5m12TQeuh4ZiwGwLEQG-29" value="1.2" style="swimlane;fontStyle=0;childLayout=stackLayout;horizontal=1;startSize=20;fillColor=default;horizontalStack=0;resizeParent=1;resizeParentMax=0;resizeLast=0;collapsible=0;marginBottom=0;swimlaneFillColor=#ffffff;labelBackgroundColor=#18141D;" parent="1" vertex="1">
                    <mxGeometry x="409" y="477" width="100" height="50" as="geometry"/>
                </mxCell>
                <mxCell id="f5m12TQeuh4ZiwGwLEQG-30" value="Authorisation API" style="text;html=1;strokeColor=none;fillColor=default;align=center;verticalAlign=middle;whiteSpace=wrap;rounded=0;labelBackgroundColor=#18141D;" parent="f5m12TQeuh4ZiwGwLEQG-29" vertex="1">
                    <mxGeometry y="20" width="100" height="30" as="geometry"/>
                </mxCell>
                <mxCell id="f5m12TQeuh4ZiwGwLEQG-31" value="Process 1.2 Authorisation API" style="text;html=1;strokeColor=none;fillColor=none;align=center;verticalAlign=middle;whiteSpace=wrap;rounded=0;fontSize=20;labelBackgroundColor=#18141D;" parent="1" vertex="1">
                    <mxGeometry x="-93" y="678" width="269" height="29" as="geometry"/>
                </mxCell>
                <mxCell id="f5m12TQeuh4ZiwGwLEQG-37" style="edgeStyle=none;rounded=0;orthogonalLoop=1;jettySize=auto;html=1;exitX=1;exitY=0.5;exitDx=0;exitDy=0;entryX=0;entryY=0.5;entryDx=0;entryDy=0;labelBackgroundColor=#18141D;" parent="1" source="f5m12TQeuh4ZiwGwLEQG-32" target="f5m12TQeuh4ZiwGwLEQG-35" edge="1">
                    <mxGeometry relative="1" as="geometry"/>
                </mxCell>
                <mxCell id="f5m12TQeuh4ZiwGwLEQG-38" value="JSON Key / Value Pairs" style="edgeLabel;html=1;align=center;verticalAlign=middle;resizable=0;points=[];labelBackgroundColor=#18141D;" parent="f5m12TQeuh4ZiwGwLEQG-37" vertex="1" connectable="0">
                    <mxGeometry x="-0.2535" y="-2" relative="1" as="geometry">
                        <mxPoint x="14" y="-8" as="offset"/>
                    </mxGeometry>
                </mxCell>
                <mxCell id="f5m12TQeuh4ZiwGwLEQG-32" value="Front End" style="html=1;dashed=0;whiteSpace=wrap;labelBackgroundColor=#18141D;" parent="1" vertex="1">
                    <mxGeometry x="-176" y="826" width="100" height="50" as="geometry"/>
                </mxCell>
                <mxCell id="f5m12TQeuh4ZiwGwLEQG-42" value="JavaScript Password" style="edgeStyle=none;rounded=0;orthogonalLoop=1;jettySize=auto;html=1;exitX=1;exitY=0.25;exitDx=0;exitDy=0;entryX=0;entryY=0.25;entryDx=0;entryDy=0;labelBackgroundColor=#18141D;" parent="1" source="f5m12TQeuh4ZiwGwLEQG-35" target="f5m12TQeuh4ZiwGwLEQG-39" edge="1">
                    <mxGeometry relative="1" as="geometry"/>
                </mxCell>
                <mxCell id="f5m12TQeuh4ZiwGwLEQG-35" value="2.1" style="swimlane;fontStyle=0;childLayout=stackLayout;horizontal=1;startSize=20;fillColor=default;horizontalStack=0;resizeParent=1;resizeParentMax=0;resizeLast=0;collapsible=0;marginBottom=0;swimlaneFillColor=#ffffff;labelBackgroundColor=#18141D;" parent="1" vertex="1">
                    <mxGeometry x="351" y="735" width="100" height="50" as="geometry"/>
                </mxCell>
                <mxCell id="f5m12TQeuh4ZiwGwLEQG-36" value="Store and Transfer" style="text;html=1;strokeColor=none;fillColor=default;align=center;verticalAlign=middle;whiteSpace=wrap;rounded=0;labelBackgroundColor=#18141D;" parent="f5m12TQeuh4ZiwGwLEQG-35" vertex="1">
                    <mxGeometry y="20" width="100" height="30" as="geometry"/>
                </mxCell>
                <mxCell id="f5m12TQeuh4ZiwGwLEQG-39" value="2.2" style="swimlane;fontStyle=0;childLayout=stackLayout;horizontal=1;startSize=20;fillColor=default;horizontalStack=0;resizeParent=1;resizeParentMax=0;resizeLast=0;collapsible=0;marginBottom=0;swimlaneFillColor=#ffffff;labelBackgroundColor=#18141D;" parent="1" vertex="1">
                    <mxGeometry x="595" y="759" width="100" height="50" as="geometry"/>
                </mxCell>
                <mxCell id="f5m12TQeuh4ZiwGwLEQG-40" value="Create Query" style="text;html=1;strokeColor=none;fillColor=default;align=center;verticalAlign=middle;whiteSpace=wrap;rounded=0;labelBackgroundColor=#18141D;" parent="f5m12TQeuh4ZiwGwLEQG-39" vertex="1">
                    <mxGeometry y="20" width="100" height="30" as="geometry"/>
                </mxCell>
                <mxCell id="f5m12TQeuh4ZiwGwLEQG-45" value="" style="group" parent="1" vertex="1" connectable="0">
                    <mxGeometry x="850" y="848" width="100" height="30" as="geometry"/>
                </mxCell>
                <mxCell id="f5m12TQeuh4ZiwGwLEQG-43" value="1" style="html=1;dashed=0;whiteSpace=wrap;shape=mxgraph.dfd.dataStoreID;align=left;spacingLeft=3;points=[[0,0],[0.5,0],[1,0],[0,0.5],[1,0.5],[0,1],[0.5,1],[1,1]];" parent="f5m12TQeuh4ZiwGwLEQG-45" vertex="1">
                    <mxGeometry width="100" height="30" as="geometry"/>
                </mxCell>
                <mxCell id="f5m12TQeuh4ZiwGwLEQG-44" value="users" style="text;html=1;strokeColor=none;fillColor=none;align=center;verticalAlign=middle;whiteSpace=wrap;rounded=0;" parent="f5m12TQeuh4ZiwGwLEQG-45" vertex="1">
                    <mxGeometry x="27" width="60" height="30" as="geometry"/>
                </mxCell>
                <mxCell id="f5m12TQeuh4ZiwGwLEQG-46" value="SQL query" style="edgeStyle=none;rounded=0;orthogonalLoop=1;jettySize=auto;html=1;exitX=1;exitY=0.25;exitDx=0;exitDy=0;entryX=0;entryY=0;entryDx=0;entryDy=0;" parent="1" source="f5m12TQeuh4ZiwGwLEQG-40" target="f5m12TQeuh4ZiwGwLEQG-43" edge="1">
                    <mxGeometry relative="1" as="geometry"/>
                </mxCell>
                <mxCell id="f5m12TQeuh4ZiwGwLEQG-51" value="No matching users in database" style="edgeStyle=none;rounded=0;orthogonalLoop=1;jettySize=auto;html=1;exitX=0;exitY=0.5;exitDx=0;exitDy=0;entryX=1;entryY=0.75;entryDx=0;entryDy=0;labelBackgroundColor=#18141D;" parent="1" target="f5m12TQeuh4ZiwGwLEQG-32" edge="1">
                    <mxGeometry x="-0.3709" y="-3" relative="1" as="geometry">
                        <mxPoint x="589" y="956.07" as="sourcePoint"/>
                        <mxPoint x="46.99999999999977" y="880.9956756756757" as="targetPoint"/>
                        <mxPoint as="offset"/>
                    </mxGeometry>
                </mxCell>
                <mxCell id="f5m12TQeuh4ZiwGwLEQG-52" value="Password Hash from user" style="edgeStyle=none;rounded=0;orthogonalLoop=1;jettySize=auto;html=1;exitX=0;exitY=1;exitDx=0;exitDy=0;entryX=1;entryY=0.75;entryDx=0;entryDy=0;labelBackgroundColor=#18141D;" parent="1" source="f5m12TQeuh4ZiwGwLEQG-48" target="f5m12TQeuh4ZiwGwLEQG-53" edge="1">
                    <mxGeometry relative="1" as="geometry">
                        <mxPoint x="491.9999457465278" y="1035.5556098090278" as="targetPoint"/>
                    </mxGeometry>
                </mxCell>
                <mxCell id="f5m12TQeuh4ZiwGwLEQG-48" value="2.3" style="swimlane;fontStyle=0;childLayout=stackLayout;horizontal=1;startSize=20;fillColor=default;horizontalStack=0;resizeParent=1;resizeParentMax=0;resizeLast=0;collapsible=0;marginBottom=0;swimlaneFillColor=#ffffff;labelBackgroundColor=#18141D;" parent="1" vertex="1">
                    <mxGeometry x="595" y="920" width="100" height="50" as="geometry"/>
                </mxCell>
                <mxCell id="f5m12TQeuh4ZiwGwLEQG-49" value="Checks" style="text;html=1;strokeColor=none;fillColor=default;align=center;verticalAlign=middle;whiteSpace=wrap;rounded=0;labelBackgroundColor=#18141D;" parent="f5m12TQeuh4ZiwGwLEQG-48" vertex="1">
                    <mxGeometry y="20" width="100" height="30" as="geometry"/>
                </mxCell>
                <mxCell id="f5m12TQeuh4ZiwGwLEQG-50" value="Results" style="edgeStyle=none;rounded=0;orthogonalLoop=1;jettySize=auto;html=1;exitX=0;exitY=1;exitDx=0;exitDy=0;entryX=1;entryY=0.25;entryDx=0;entryDy=0;" parent="1" source="f5m12TQeuh4ZiwGwLEQG-43" target="f5m12TQeuh4ZiwGwLEQG-48" edge="1">
                    <mxGeometry relative="1" as="geometry"/>
                </mxCell>
                <mxCell id="f5m12TQeuh4ZiwGwLEQG-55" value="JavaScript Password" style="edgeStyle=none;rounded=0;orthogonalLoop=1;jettySize=auto;html=1;exitX=0.25;exitY=1;exitDx=0;exitDy=0;entryX=1;entryY=0.25;entryDx=0;entryDy=0;labelBackgroundColor=#18141D;" parent="1" source="f5m12TQeuh4ZiwGwLEQG-36" target="f5m12TQeuh4ZiwGwLEQG-58" edge="1">
                    <mxGeometry x="-0.3195" y="1" relative="1" as="geometry">
                        <mxPoint x="281.98543689320377" y="966" as="targetPoint"/>
                        <mxPoint as="offset"/>
                    </mxGeometry>
                </mxCell>
                <mxCell id="f5m12TQeuh4ZiwGwLEQG-61" value="DB Hashed Password" style="edgeStyle=none;rounded=0;orthogonalLoop=1;jettySize=auto;html=1;exitX=0;exitY=0.75;exitDx=0;exitDy=0;entryX=1;entryY=0.5;entryDx=0;entryDy=0;labelBackgroundColor=#18141D;" parent="1" source="f5m12TQeuh4ZiwGwLEQG-53" target="f5m12TQeuh4ZiwGwLEQG-59" edge="1">
                    <mxGeometry x="-0.0027" relative="1" as="geometry">
                        <mxPoint as="offset"/>
                    </mxGeometry>
                </mxCell>
                <mxCell id="f5m12TQeuh4ZiwGwLEQG-53" value="2.4" style="swimlane;fontStyle=0;childLayout=stackLayout;horizontal=1;startSize=20;fillColor=default;horizontalStack=0;resizeParent=1;resizeParentMax=0;resizeLast=0;collapsible=0;marginBottom=0;swimlaneFillColor=#ffffff;labelBackgroundColor=#18141D;" parent="1" vertex="1">
                    <mxGeometry x="382" y="1025" width="122" height="55" as="geometry"/>
                </mxCell>
                <mxCell id="f5m12TQeuh4ZiwGwLEQG-54" value="Stores in JS variable" style="text;html=1;strokeColor=none;fillColor=default;align=center;verticalAlign=middle;whiteSpace=wrap;rounded=0;labelBackgroundColor=#18141D;" parent="f5m12TQeuh4ZiwGwLEQG-53" vertex="1">
                    <mxGeometry y="20" width="122" height="35" as="geometry"/>
                </mxCell>
                <mxCell id="f5m12TQeuh4ZiwGwLEQG-62" value="Correct / Incorrect Password" style="edgeStyle=none;rounded=0;orthogonalLoop=1;jettySize=auto;html=1;exitX=0;exitY=0.25;exitDx=0;exitDy=0;entryX=0.75;entryY=1;entryDx=0;entryDy=0;labelBackgroundColor=#18141D;" parent="1" source="f5m12TQeuh4ZiwGwLEQG-58" target="f5m12TQeuh4ZiwGwLEQG-32" edge="1">
                    <mxGeometry relative="1" as="geometry"/>
                </mxCell>
                <mxCell id="f5m12TQeuh4ZiwGwLEQG-58" value="2.6" style="swimlane;fontStyle=0;childLayout=stackLayout;horizontal=1;startSize=20;fillColor=default;horizontalStack=0;resizeParent=1;resizeParentMax=0;resizeLast=0;collapsible=0;marginBottom=0;swimlaneFillColor=#ffffff;labelBackgroundColor=#18141D;" parent="1" vertex="1">
                    <mxGeometry x="-14" y="1042" width="100" height="50" as="geometry"/>
                </mxCell>
                <mxCell id="f5m12TQeuh4ZiwGwLEQG-59" value="Match Hashes" style="text;html=1;strokeColor=none;fillColor=default;align=center;verticalAlign=middle;whiteSpace=wrap;rounded=0;labelBackgroundColor=#18141D;" parent="f5m12TQeuh4ZiwGwLEQG-58" vertex="1">
                    <mxGeometry y="20" width="100" height="30" as="geometry"/>
                </mxCell>
                <mxCell id="f5m12TQeuh4ZiwGwLEQG-63" value="2.6 Match Hashes Process" style="text;html=1;strokeColor=none;fillColor=none;align=center;verticalAlign=middle;whiteSpace=wrap;rounded=0;fontSize=20;" parent="1" vertex="1">
                    <mxGeometry x="-308" y="1252" width="269" height="29" as="geometry"/>
                </mxCell>
                <mxCell id="f5m12TQeuh4ZiwGwLEQG-70" value="JSON value" style="edgeStyle=none;rounded=0;orthogonalLoop=1;jettySize=auto;html=1;exitX=1;exitY=0.5;exitDx=0;exitDy=0;entryX=0;entryY=0;entryDx=0;entryDy=0;" parent="1" source="f5m12TQeuh4ZiwGwLEQG-65" target="f5m12TQeuh4ZiwGwLEQG-69" edge="1">
                    <mxGeometry relative="1" as="geometry"/>
                </mxCell>
                <mxCell id="f5m12TQeuh4ZiwGwLEQG-65" value="Client Side Password" style="html=1;dashed=0;whiteSpace=wrap;" parent="1" vertex="1">
                    <mxGeometry x="-322" y="1473" width="100" height="50" as="geometry"/>
                </mxCell>
                <mxCell id="f5m12TQeuh4ZiwGwLEQG-78" style="edgeStyle=none;rounded=0;orthogonalLoop=1;jettySize=auto;html=1;exitX=1;exitY=0.5;exitDx=0;exitDy=0;entryX=0;entryY=0.5;entryDx=0;entryDy=0;" parent="1" source="f5m12TQeuh4ZiwGwLEQG-66" target="f5m12TQeuh4ZiwGwLEQG-77" edge="1">
                    <mxGeometry relative="1" as="geometry">
                        <mxPoint x="2.4000244140625" y="1624" as="targetPoint"/>
                    </mxGeometry>
                </mxCell>
                <mxCell id="f5m12TQeuh4ZiwGwLEQG-66" value="Database Password" style="html=1;dashed=0;whiteSpace=wrap;" parent="1" vertex="1">
                    <mxGeometry x="-322" y="1599" width="100" height="50" as="geometry"/>
                </mxCell>
                <mxCell id="f5m12TQeuh4ZiwGwLEQG-68" value="3.1" style="swimlane;fontStyle=0;childLayout=stackLayout;horizontal=1;startSize=20;fillColor=#ffffff;horizontalStack=0;resizeParent=1;resizeParentMax=0;resizeLast=0;collapsible=0;marginBottom=0;swimlaneFillColor=#ffffff;" parent="1" vertex="1">
                    <mxGeometry x="-29" y="1409" width="100" height="50" as="geometry"/>
                </mxCell>
                <mxCell id="f5m12TQeuh4ZiwGwLEQG-69" value="Store in JS variable" style="text;html=1;strokeColor=none;fillColor=none;align=center;verticalAlign=middle;whiteSpace=wrap;rounded=0;" parent="f5m12TQeuh4ZiwGwLEQG-68" vertex="1">
                    <mxGeometry y="20" width="100" height="30" as="geometry"/>
                </mxCell>
                <mxCell id="f5m12TQeuh4ZiwGwLEQG-71" value="Front End" style="html=1;dashed=0;whiteSpace=wrap;" parent="1" vertex="1">
                    <mxGeometry x="-322" y="1388" width="100" height="50" as="geometry"/>
                </mxCell>
                <mxCell id="f5m12TQeuh4ZiwGwLEQG-73" value="3.2" style="swimlane;fontStyle=0;childLayout=stackLayout;horizontal=1;startSize=20;fillColor=#ffffff;horizontalStack=0;resizeParent=1;resizeParentMax=0;resizeLast=0;collapsible=0;marginBottom=0;swimlaneFillColor=#ffffff;" parent="1" vertex="1">
                    <mxGeometry x="219" y="1486" width="100" height="50" as="geometry"/>
                </mxCell>
                <mxCell id="f5m12TQeuh4ZiwGwLEQG-74" value="Encrypted Password" style="text;html=1;strokeColor=none;fillColor=none;align=center;verticalAlign=middle;whiteSpace=wrap;rounded=0;" parent="f5m12TQeuh4ZiwGwLEQG-73" vertex="1">
                    <mxGeometry y="20" width="100" height="30" as="geometry"/>
                </mxCell>
                <mxCell id="f5m12TQeuh4ZiwGwLEQG-75" value="Password string" style="edgeStyle=none;rounded=0;orthogonalLoop=1;jettySize=auto;html=1;exitX=1;exitY=0.5;exitDx=0;exitDy=0;entryX=0;entryY=0.5;entryDx=0;entryDy=0;" parent="1" source="f5m12TQeuh4ZiwGwLEQG-69" target="f5m12TQeuh4ZiwGwLEQG-74" edge="1">
                    <mxGeometry relative="1" as="geometry"/>
                </mxCell>
                <mxCell id="f5m12TQeuh4ZiwGwLEQG-80" style="edgeStyle=none;rounded=0;orthogonalLoop=1;jettySize=auto;html=1;exitX=0;exitY=0;exitDx=0;exitDy=0;entryX=1;entryY=0.75;entryDx=0;entryDy=0;" parent="1" source="f5m12TQeuh4ZiwGwLEQG-76" target="f5m12TQeuh4ZiwGwLEQG-71" edge="1">
                    <mxGeometry relative="1" as="geometry"/>
                </mxCell>
                <mxCell id="f5m12TQeuh4ZiwGwLEQG-81" value="Password correct / incorrect" style="edgeLabel;html=1;align=center;verticalAlign=middle;resizable=0;points=[];" parent="f5m12TQeuh4ZiwGwLEQG-80" vertex="1" connectable="0">
                    <mxGeometry x="-0.1982" y="1" relative="1" as="geometry">
                        <mxPoint as="offset"/>
                    </mxGeometry>
                </mxCell>
                <mxCell id="f5m12TQeuh4ZiwGwLEQG-76" value="3.3" style="swimlane;fontStyle=0;childLayout=stackLayout;horizontal=1;startSize=20;fillColor=#ffffff;horizontalStack=0;resizeParent=1;resizeParentMax=0;resizeLast=0;collapsible=0;marginBottom=0;swimlaneFillColor=#ffffff;" parent="1" vertex="1">
                    <mxGeometry x="15" y="1603" width="100" height="50" as="geometry"/>
                </mxCell>
                <mxCell id="f5m12TQeuh4ZiwGwLEQG-77" value="Comparison" style="text;html=1;strokeColor=none;fillColor=none;align=center;verticalAlign=middle;whiteSpace=wrap;rounded=0;" parent="f5m12TQeuh4ZiwGwLEQG-76" vertex="1">
                    <mxGeometry y="20" width="100" height="30" as="geometry"/>
                </mxCell>
                <mxCell id="f5m12TQeuh4ZiwGwLEQG-79" style="edgeStyle=none;rounded=0;orthogonalLoop=1;jettySize=auto;html=1;exitX=0.5;exitY=1;exitDx=0;exitDy=0;entryX=1;entryY=0.5;entryDx=0;entryDy=0;" parent="1" source="f5m12TQeuh4ZiwGwLEQG-74" target="f5m12TQeuh4ZiwGwLEQG-77" edge="1">
                    <mxGeometry relative="1" as="geometry"/>
                </mxCell>
            </root>
        </mxGraphModel>
    </diagram>
    <diagram id="7UG8FO-o-fBgsRRxOhr8" name="DFD - Exercise API">
        <mxGraphModel dx="1339" dy="832" grid="0" gridSize="10" guides="1" tooltips="1" connect="1" arrows="1" fold="1" page="0" pageScale="1" pageWidth="827" pageHeight="1169" math="0" shadow="0">
            <root>
                <mxCell id="0"/>
                <mxCell id="1" parent="0"/>
                <mxCell id="T64KqjQjLGa7VNyFGcTU-5" value="Search Tearm" style="edgeStyle=none;rounded=0;orthogonalLoop=1;jettySize=auto;html=1;exitX=1;exitY=0.5;exitDx=0;exitDy=0;entryX=0;entryY=0.5;entryDx=0;entryDy=0;" parent="1" source="T64KqjQjLGa7VNyFGcTU-1" target="T64KqjQjLGa7VNyFGcTU-3" edge="1">
                    <mxGeometry relative="1" as="geometry"/>
                </mxCell>
                <mxCell id="T64KqjQjLGa7VNyFGcTU-1" value="User" style="html=1;dashed=0;whiteSpace=wrap;" parent="1" vertex="1">
                    <mxGeometry x="-212" y="212" width="84" height="34" as="geometry"/>
                </mxCell>
                <mxCell id="T64KqjQjLGa7VNyFGcTU-3" value="1.1" style="swimlane;fontStyle=0;childLayout=stackLayout;horizontal=1;startSize=20;fillColor=#ffffff;horizontalStack=0;resizeParent=1;resizeParentMax=0;resizeLast=0;collapsible=0;marginBottom=0;swimlaneFillColor=#ffffff;" parent="1" vertex="1">
                    <mxGeometry x="46" y="117" width="100" height="50" as="geometry"/>
                </mxCell>
                <mxCell id="T64KqjQjLGa7VNyFGcTU-4" value="Store searchterm in JS variable" style="text;html=1;strokeColor=none;fillColor=none;align=center;verticalAlign=middle;whiteSpace=wrap;rounded=0;" parent="T64KqjQjLGa7VNyFGcTU-3" vertex="1">
                    <mxGeometry y="20" width="100" height="30" as="geometry"/>
                </mxCell>
                <mxCell id="T64KqjQjLGa7VNyFGcTU-6" style="edgeStyle=none;rounded=0;orthogonalLoop=1;jettySize=auto;html=1;exitX=1;exitY=0;exitDx=0;exitDy=0;" parent="1" source="T64KqjQjLGa7VNyFGcTU-1" target="T64KqjQjLGa7VNyFGcTU-1" edge="1">
                    <mxGeometry relative="1" as="geometry"/>
                </mxCell>
                <mxCell id="T64KqjQjLGa7VNyFGcTU-7" value="1.2" style="swimlane;fontStyle=0;childLayout=stackLayout;horizontal=1;startSize=20;fillColor=#ffffff;horizontalStack=0;resizeParent=1;resizeParentMax=0;resizeLast=0;collapsible=0;marginBottom=0;swimlaneFillColor=#ffffff;" parent="1" vertex="1">
                    <mxGeometry x="255" y="216" width="100" height="50" as="geometry"/>
                </mxCell>
                <mxCell id="T64KqjQjLGa7VNyFGcTU-8" value="Request to Exercise API" style="text;html=1;strokeColor=none;fillColor=none;align=center;verticalAlign=middle;whiteSpace=wrap;rounded=0;" parent="T64KqjQjLGa7VNyFGcTU-7" vertex="1">
                    <mxGeometry y="20" width="100" height="30" as="geometry"/>
                </mxCell>
                <mxCell id="T64KqjQjLGa7VNyFGcTU-9" value="Variable" style="edgeStyle=none;rounded=0;orthogonalLoop=1;jettySize=auto;html=1;exitX=1;exitY=0.25;exitDx=0;exitDy=0;entryX=0;entryY=0.25;entryDx=0;entryDy=0;" parent="1" source="T64KqjQjLGa7VNyFGcTU-4" target="T64KqjQjLGa7VNyFGcTU-8" edge="1">
                    <mxGeometry relative="1" as="geometry"/>
                </mxCell>
                <mxCell id="T64KqjQjLGa7VNyFGcTU-11" value="1.3" style="swimlane;fontStyle=0;childLayout=stackLayout;horizontal=1;startSize=20;fillColor=#ffffff;horizontalStack=0;resizeParent=1;resizeParentMax=0;resizeLast=0;collapsible=0;marginBottom=0;swimlaneFillColor=#ffffff;" parent="1" vertex="1">
                    <mxGeometry x="112" y="334" width="100" height="50" as="geometry"/>
                </mxCell>
                <mxCell id="T64KqjQjLGa7VNyFGcTU-12" value="Parse to JSON" style="text;html=1;strokeColor=none;fillColor=none;align=center;verticalAlign=middle;whiteSpace=wrap;rounded=0;" parent="T64KqjQjLGa7VNyFGcTU-11" vertex="1">
                    <mxGeometry y="20" width="100" height="30" as="geometry"/>
                </mxCell>
                <mxCell id="T64KqjQjLGa7VNyFGcTU-13" value="Response Data" style="edgeStyle=none;rounded=0;orthogonalLoop=1;jettySize=auto;html=1;exitX=0;exitY=0.75;exitDx=0;exitDy=0;entryX=1;entryY=0.5;entryDx=0;entryDy=0;" parent="1" source="T64KqjQjLGa7VNyFGcTU-8" target="T64KqjQjLGa7VNyFGcTU-12" edge="1">
                    <mxGeometry x="-0.1338" y="-2" relative="1" as="geometry">
                        <mxPoint as="offset"/>
                    </mxGeometry>
                </mxCell>
                <mxCell id="T64KqjQjLGa7VNyFGcTU-14" value="1.4" style="swimlane;fontStyle=0;childLayout=stackLayout;horizontal=1;startSize=20;fillColor=#ffffff;horizontalStack=0;resizeParent=1;resizeParentMax=0;resizeLast=0;collapsible=0;marginBottom=0;swimlaneFillColor=#ffffff;" parent="1" vertex="1">
                    <mxGeometry x="-78" y="334" width="100" height="50" as="geometry"/>
                </mxCell>
                <mxCell id="T64KqjQjLGa7VNyFGcTU-15" value="JSON to React Text" style="text;html=1;strokeColor=none;fillColor=none;align=center;verticalAlign=middle;whiteSpace=wrap;rounded=0;" parent="T64KqjQjLGa7VNyFGcTU-14" vertex="1">
                    <mxGeometry y="20" width="100" height="30" as="geometry"/>
                </mxCell>
                <mxCell id="T64KqjQjLGa7VNyFGcTU-16" value="HTML text" style="edgeStyle=none;rounded=0;orthogonalLoop=1;jettySize=auto;html=1;exitX=0;exitY=0.25;exitDx=0;exitDy=0;entryX=1;entryY=0.75;entryDx=0;entryDy=0;" parent="1" source="T64KqjQjLGa7VNyFGcTU-15" target="T64KqjQjLGa7VNyFGcTU-1" edge="1">
                    <mxGeometry relative="1" as="geometry"/>
                </mxCell>
                <mxCell id="T64KqjQjLGa7VNyFGcTU-17" value="JSON" style="edgeStyle=none;rounded=0;orthogonalLoop=1;jettySize=auto;html=1;exitX=0;exitY=0.5;exitDx=0;exitDy=0;entryX=1;entryY=0.5;entryDx=0;entryDy=0;" parent="1" source="T64KqjQjLGa7VNyFGcTU-12" target="T64KqjQjLGa7VNyFGcTU-15" edge="1">
                    <mxGeometry relative="1" as="geometry"/>
                </mxCell>
                <mxCell id="T64KqjQjLGa7VNyFGcTU-18" value="Error retrieving data" style="edgeStyle=none;rounded=0;orthogonalLoop=1;jettySize=auto;html=1;exitX=0;exitY=0.5;exitDx=0;exitDy=0;" parent="1" source="T64KqjQjLGa7VNyFGcTU-8" target="T64KqjQjLGa7VNyFGcTU-1" edge="1">
                    <mxGeometry relative="1" as="geometry"/>
                </mxCell>
                <mxCell id="T64KqjQjLGa7VNyFGcTU-19" value="Exercise API Request" style="text;html=1;strokeColor=none;fillColor=none;align=center;verticalAlign=middle;whiteSpace=wrap;rounded=0;fontSize=20;" parent="1" vertex="1">
                    <mxGeometry x="-212" y="31" width="269" height="29" as="geometry"/>
                </mxCell>
            </root>
        </mxGraphModel>
    </diagram>
    <diagram id="Kn5Zz_s6m1oDZnqtnTEx" name="Swimlane Diagram">
        <mxGraphModel dx="1035" dy="1842" grid="1" gridSize="10" guides="1" tooltips="1" connect="1" arrows="1" fold="1" page="0" pageScale="1" pageWidth="827" pageHeight="1169" math="0" shadow="0">
            <root>
                <mxCell id="0"/>
                <mxCell id="1" parent="0"/>
                <mxCell id="ZLVccVxG_D6yeQr7R69S-1" value="" style="endArrow=none;dashed=1;html=1;dashPattern=1 3;strokeWidth=2;labelBackgroundColor=#18141D;movable=1;resizable=1;rotatable=1;deletable=1;editable=1;connectable=1;" parent="1" edge="1">
                    <mxGeometry width="50" height="50" relative="1" as="geometry">
                        <mxPoint y="630" as="sourcePoint"/>
                        <mxPoint x="1360" y="630" as="targetPoint"/>
                    </mxGeometry>
                </mxCell>
                <mxCell id="ZLVccVxG_D6yeQr7R69S-2" value="" style="endArrow=none;dashed=1;html=1;dashPattern=1 3;strokeWidth=2;labelBackgroundColor=#18141D;movable=1;resizable=1;rotatable=1;deletable=1;editable=1;connectable=1;" parent="1" edge="1">
                    <mxGeometry width="50" height="50" relative="1" as="geometry">
                        <mxPoint x="-3" y="790" as="sourcePoint"/>
                        <mxPoint x="1360" y="790" as="targetPoint"/>
                    </mxGeometry>
                </mxCell>
                <mxCell id="ZLVccVxG_D6yeQr7R69S-3" value="UI" style="text;html=1;strokeColor=none;fillColor=none;align=center;verticalAlign=middle;whiteSpace=wrap;rounded=0;labelBackgroundColor=#18141D;movable=1;resizable=1;rotatable=1;deletable=1;editable=1;connectable=1;" parent="1" vertex="1">
                    <mxGeometry x="-80" y="550" width="60" height="30" as="geometry"/>
                </mxCell>
                <mxCell id="ZLVccVxG_D6yeQr7R69S-4" value="DB" style="text;html=1;strokeColor=none;fillColor=none;align=center;verticalAlign=middle;whiteSpace=wrap;rounded=0;labelBackgroundColor=#18141D;movable=1;resizable=1;rotatable=1;deletable=1;editable=1;connectable=1;" parent="1" vertex="1">
                    <mxGeometry x="-80" y="840" width="60" height="30" as="geometry"/>
                </mxCell>
                <mxCell id="ZLVccVxG_D6yeQr7R69S-6" value="Service" style="text;html=1;strokeColor=none;fillColor=none;align=center;verticalAlign=middle;whiteSpace=wrap;rounded=0;labelBackgroundColor=#18141D;movable=1;resizable=1;rotatable=1;deletable=1;editable=1;connectable=1;" parent="1" vertex="1">
                    <mxGeometry x="-80" y="680" width="60" height="30" as="geometry"/>
                </mxCell>
                <mxCell id="ZLVccVxG_D6yeQr7R69S-7" value="Actor" style="shape=umlActor;verticalLabelPosition=bottom;verticalAlign=top;html=1;outlineConnect=0;labelBackgroundColor=#18141D;fillColor=default;" parent="1" vertex="1">
                    <mxGeometry x="30" y="380" width="30" height="60" as="geometry"/>
                </mxCell>
                <mxCell id="ZLVccVxG_D6yeQr7R69S-11" value="" style="edgeStyle=none;html=1;labelBackgroundColor=#18141D;" parent="1" source="ZLVccVxG_D6yeQr7R69S-9" target="ZLVccVxG_D6yeQr7R69S-10" edge="1">
                    <mxGeometry relative="1" as="geometry"/>
                </mxCell>
                <mxCell id="ZLVccVxG_D6yeQr7R69S-12" value="Username, Password" style="edgeLabel;html=1;align=center;verticalAlign=middle;resizable=0;points=[];" parent="ZLVccVxG_D6yeQr7R69S-11" vertex="1" connectable="0">
                    <mxGeometry x="-0.0526" y="-1" relative="1" as="geometry">
                        <mxPoint as="offset"/>
                    </mxGeometry>
                </mxCell>
                <mxCell id="ZLVccVxG_D6yeQr7R69S-9" value="Login Screen" style="rounded=0;whiteSpace=wrap;html=1;labelBackgroundColor=#18141D;fillColor=default;" parent="1" vertex="1">
                    <mxGeometry x="10" y="530" width="100" height="50" as="geometry"/>
                </mxCell>
                <mxCell id="ZLVccVxG_D6yeQr7R69S-21" style="edgeStyle=none;html=1;exitX=1;exitY=0.5;exitDx=0;exitDy=0;entryX=0;entryY=0.5;entryDx=0;entryDy=0;labelBackgroundColor=#18141D;" parent="1" source="ZLVccVxG_D6yeQr7R69S-10" target="ZLVccVxG_D6yeQr7R69S-20" edge="1">
                    <mxGeometry relative="1" as="geometry"/>
                </mxCell>
                <mxCell id="ZLVccVxG_D6yeQr7R69S-10" value="Store Variables" style="rounded=0;whiteSpace=wrap;html=1;labelBackgroundColor=#18141D;fillColor=default;" parent="1" vertex="1">
                    <mxGeometry x="100" y="670" width="100" height="50" as="geometry"/>
                </mxCell>
                <mxCell id="ZLVccVxG_D6yeQr7R69S-24" value="" style="edgeStyle=none;html=1;labelBackgroundColor=#18141D;" parent="1" source="ZLVccVxG_D6yeQr7R69S-20" target="ZLVccVxG_D6yeQr7R69S-23" edge="1">
                    <mxGeometry relative="1" as="geometry"/>
                </mxCell>
                <mxCell id="ZLVccVxG_D6yeQr7R69S-25" value="No Password" style="edgeLabel;html=1;align=center;verticalAlign=middle;resizable=0;points=[];" parent="ZLVccVxG_D6yeQr7R69S-24" vertex="1" connectable="0">
                    <mxGeometry x="-0.2795" y="-2" relative="1" as="geometry">
                        <mxPoint as="offset"/>
                    </mxGeometry>
                </mxCell>
                <mxCell id="ZLVccVxG_D6yeQr7R69S-27" value="Is Password" style="edgeStyle=none;html=1;labelBackgroundColor=#18141D;" parent="1" source="ZLVccVxG_D6yeQr7R69S-20" target="ZLVccVxG_D6yeQr7R69S-26" edge="1">
                    <mxGeometry relative="1" as="geometry"/>
                </mxCell>
                <mxCell id="ZLVccVxG_D6yeQr7R69S-20" value="Check Password" style="rhombus;whiteSpace=wrap;html=1;labelBackgroundColor=#18141D;fillColor=default;" parent="1" vertex="1">
                    <mxGeometry x="304" y="647.5" width="110" height="95" as="geometry"/>
                </mxCell>
                <mxCell id="ZLVccVxG_D6yeQr7R69S-23" value="Enter Password" style="whiteSpace=wrap;html=1;labelBackgroundColor=#18141D;" parent="1" vertex="1">
                    <mxGeometry x="308.5" y="532.5" width="101" height="45" as="geometry"/>
                </mxCell>
                <mxCell id="ZLVccVxG_D6yeQr7R69S-28" value="Find Query" style="edgeStyle=none;html=1;exitX=1;exitY=1;exitDx=0;exitDy=0;labelBackgroundColor=#18141D;entryX=0.5;entryY=0;entryDx=0;entryDy=0;" parent="1" source="ZLVccVxG_D6yeQr7R69S-26" target="ZLVccVxG_D6yeQr7R69S-29" edge="1">
                    <mxGeometry relative="1" as="geometry">
                        <mxPoint x="700" y="820" as="targetPoint"/>
                    </mxGeometry>
                </mxCell>
                <mxCell id="ZLVccVxG_D6yeQr7R69S-26" value="Create SQL Query" style="whiteSpace=wrap;html=1;labelBackgroundColor=#18141D;" parent="1" vertex="1">
                    <mxGeometry x="530" y="665" width="120" height="60" as="geometry"/>
                </mxCell>
                <mxCell id="ZLVccVxG_D6yeQr7R69S-31" value="Response" style="edgeStyle=none;html=1;labelBackgroundColor=#18141D;exitX=0.5;exitY=0;exitDx=0;exitDy=0;" parent="1" source="ZLVccVxG_D6yeQr7R69S-29" target="ZLVccVxG_D6yeQr7R69S-30" edge="1">
                    <mxGeometry relative="1" as="geometry">
                        <mxPoint x="750" y="810" as="sourcePoint"/>
                    </mxGeometry>
                </mxCell>
                <mxCell id="ZLVccVxG_D6yeQr7R69S-29" value="users" style="rounded=0;whiteSpace=wrap;html=1;labelBackgroundColor=#18141D;fillColor=default;" parent="1" vertex="1">
                    <mxGeometry x="680" y="810" width="70" height="30" as="geometry"/>
                </mxCell>
                <mxCell id="ZLVccVxG_D6yeQr7R69S-33" value="No records" style="edgeStyle=none;html=1;labelBackgroundColor=#18141D;" parent="1" source="ZLVccVxG_D6yeQr7R69S-30" target="ZLVccVxG_D6yeQr7R69S-32" edge="1">
                    <mxGeometry relative="1" as="geometry"/>
                </mxCell>
                <mxCell id="ZLVccVxG_D6yeQr7R69S-34" value="Records" style="edgeStyle=none;html=1;exitX=1;exitY=0.5;exitDx=0;exitDy=0;labelBackgroundColor=#18141D;entryX=0.005;entryY=0.572;entryDx=0;entryDy=0;entryPerimeter=0;" parent="1" source="ZLVccVxG_D6yeQr7R69S-30" target="ZLVccVxG_D6yeQr7R69S-35" edge="1">
                    <mxGeometry relative="1" as="geometry">
                        <mxPoint x="920" y="703" as="targetPoint"/>
                    </mxGeometry>
                </mxCell>
                <mxCell id="ZLVccVxG_D6yeQr7R69S-30" value="Records" style="rhombus;whiteSpace=wrap;html=1;labelBackgroundColor=#18141D;fillColor=default;" parent="1" vertex="1">
                    <mxGeometry x="760" y="663" width="80" height="80" as="geometry"/>
                </mxCell>
                <mxCell id="ZLVccVxG_D6yeQr7R69S-32" value="Incorrect User or Password" style="whiteSpace=wrap;html=1;labelBackgroundColor=#18141D;" parent="1" vertex="1">
                    <mxGeometry x="740" y="530" width="120" height="60" as="geometry"/>
                </mxCell>
                <mxCell id="ZLVccVxG_D6yeQr7R69S-35" value="Compare" style="rounded=0;whiteSpace=wrap;html=1;labelBackgroundColor=#18141D;fillColor=default;" parent="1" vertex="1">
                    <mxGeometry x="950" y="675" width="110" height="50" as="geometry"/>
                </mxCell>
                <mxCell id="ZLVccVxG_D6yeQr7R69S-36" value="" style="endArrow=none;dashed=1;html=1;dashPattern=1 3;strokeWidth=2;labelBackgroundColor=#18141D;movable=0;resizable=0;rotatable=0;deletable=0;editable=0;connectable=0;" parent="1" edge="1">
                    <mxGeometry width="50" height="50" relative="1" as="geometry">
                        <mxPoint x="-120" y="-80" as="sourcePoint"/>
                        <mxPoint x="840" y="-80" as="targetPoint"/>
                    </mxGeometry>
                </mxCell>
                <mxCell id="ZLVccVxG_D6yeQr7R69S-37" value="" style="endArrow=none;dashed=1;html=1;dashPattern=1 3;strokeWidth=2;labelBackgroundColor=#18141D;movable=0;resizable=0;rotatable=0;deletable=0;editable=0;connectable=0;" parent="1" edge="1">
                    <mxGeometry width="50" height="50" relative="1" as="geometry">
                        <mxPoint x="-120" y="80" as="sourcePoint"/>
                        <mxPoint x="840" y="80" as="targetPoint"/>
                    </mxGeometry>
                </mxCell>
                <mxCell id="ZLVccVxG_D6yeQr7R69S-38" value="UI" style="text;html=1;strokeColor=none;fillColor=none;align=center;verticalAlign=middle;whiteSpace=wrap;rounded=0;labelBackgroundColor=#18141D;movable=0;resizable=0;rotatable=0;deletable=0;editable=0;connectable=0;" parent="1" vertex="1">
                    <mxGeometry x="-80" y="-160" width="60" height="30" as="geometry"/>
                </mxCell>
                <mxCell id="ZLVccVxG_D6yeQr7R69S-39" value="DB" style="text;html=1;strokeColor=none;fillColor=none;align=center;verticalAlign=middle;whiteSpace=wrap;rounded=0;labelBackgroundColor=#18141D;movable=0;resizable=0;rotatable=0;deletable=0;editable=0;connectable=0;" parent="1" vertex="1">
                    <mxGeometry x="-80" y="130" width="60" height="30" as="geometry"/>
                </mxCell>
                <mxCell id="ZLVccVxG_D6yeQr7R69S-40" value="Service" style="text;html=1;strokeColor=none;fillColor=none;align=center;verticalAlign=middle;whiteSpace=wrap;rounded=0;labelBackgroundColor=#18141D;movable=0;resizable=0;rotatable=0;deletable=0;editable=0;connectable=0;" parent="1" vertex="1">
                    <mxGeometry x="-80" y="-30" width="60" height="30" as="geometry"/>
                </mxCell>
                <mxCell id="ZLVccVxG_D6yeQr7R69S-41" value="Actor" style="shape=umlActor;verticalLabelPosition=bottom;verticalAlign=top;html=1;outlineConnect=0;labelBackgroundColor=#18141D;fillColor=default;" parent="1" vertex="1">
                    <mxGeometry x="30" y="-290" width="30" height="60" as="geometry"/>
                </mxCell>
                <mxCell id="ZLVccVxG_D6yeQr7R69S-42" value="" style="edgeStyle=none;html=1;labelBackgroundColor=#18141D;entryX=0.5;entryY=0;entryDx=0;entryDy=0;" parent="1" source="ZLVccVxG_D6yeQr7R69S-44" target="ZLVccVxG_D6yeQr7R69S-46" edge="1">
                    <mxGeometry relative="1" as="geometry"/>
                </mxCell>
                <mxCell id="ZLVccVxG_D6yeQr7R69S-43" value="Username, Password" style="edgeLabel;html=1;align=center;verticalAlign=middle;resizable=0;points=[];" parent="ZLVccVxG_D6yeQr7R69S-42" vertex="1" connectable="0">
                    <mxGeometry x="-0.0526" y="-1" relative="1" as="geometry">
                        <mxPoint as="offset"/>
                    </mxGeometry>
                </mxCell>
                <mxCell id="ZLVccVxG_D6yeQr7R69S-44" value="Login Screen" style="rounded=0;whiteSpace=wrap;html=1;labelBackgroundColor=#18141D;fillColor=default;" parent="1" vertex="1">
                    <mxGeometry x="10" y="-180" width="100" height="50" as="geometry"/>
                </mxCell>
                <mxCell id="ZLVccVxG_D6yeQr7R69S-45" value="Search for User" style="edgeStyle=none;html=1;exitX=0.5;exitY=1;exitDx=0;exitDy=0;entryX=0.5;entryY=0;entryDx=0;entryDy=0;labelBackgroundColor=#18141D;" parent="1" source="ZLVccVxG_D6yeQr7R69S-46" target="ZLVccVxG_D6yeQr7R69S-55" edge="1">
                    <mxGeometry relative="1" as="geometry">
                        <mxPoint x="304" y="-15" as="targetPoint"/>
                    </mxGeometry>
                </mxCell>
                <mxCell id="ZLVccVxG_D6yeQr7R69S-46" value="Check Database" style="rounded=0;whiteSpace=wrap;html=1;labelBackgroundColor=#18141D;fillColor=default;" parent="1" vertex="1">
                    <mxGeometry x="80" y="-40" width="100" height="50" as="geometry"/>
                </mxCell>
                <mxCell id="ZLVccVxG_D6yeQr7R69S-54" value="Response" style="edgeStyle=none;html=1;labelBackgroundColor=#18141D;exitX=0.5;exitY=0;exitDx=0;exitDy=0;" parent="1" source="ZLVccVxG_D6yeQr7R69S-55" target="ZLVccVxG_D6yeQr7R69S-58" edge="1">
                    <mxGeometry relative="1" as="geometry">
                        <mxPoint x="290" y="120" as="sourcePoint"/>
                    </mxGeometry>
                </mxCell>
                <mxCell id="ZLVccVxG_D6yeQr7R69S-55" value="users" style="rounded=0;whiteSpace=wrap;html=1;labelBackgroundColor=#18141D;fillColor=default;" parent="1" vertex="1">
                    <mxGeometry x="190" y="120" width="70" height="30" as="geometry"/>
                </mxCell>
                <mxCell id="ZLVccVxG_D6yeQr7R69S-56" value="No records" style="edgeStyle=none;html=1;labelBackgroundColor=#18141D;" parent="1" source="ZLVccVxG_D6yeQr7R69S-58" target="ZLVccVxG_D6yeQr7R69S-59" edge="1">
                    <mxGeometry relative="1" as="geometry"/>
                </mxCell>
                <mxCell id="ZLVccVxG_D6yeQr7R69S-57" value="Records" style="edgeStyle=none;html=1;exitX=1;exitY=0.5;exitDx=0;exitDy=0;labelBackgroundColor=#18141D;entryX=0.005;entryY=0.572;entryDx=0;entryDy=0;entryPerimeter=0;" parent="1" source="ZLVccVxG_D6yeQr7R69S-58" target="ZLVccVxG_D6yeQr7R69S-60" edge="1">
                    <mxGeometry relative="1" as="geometry">
                        <mxPoint x="460" y="13" as="targetPoint"/>
                    </mxGeometry>
                </mxCell>
                <mxCell id="ZLVccVxG_D6yeQr7R69S-58" value="Records" style="rhombus;whiteSpace=wrap;html=1;labelBackgroundColor=#18141D;fillColor=default;" parent="1" vertex="1">
                    <mxGeometry x="300" y="-27" width="80" height="80" as="geometry"/>
                </mxCell>
                <mxCell id="ZLVccVxG_D6yeQr7R69S-59" value="Incorrect User or Password" style="whiteSpace=wrap;html=1;labelBackgroundColor=#18141D;" parent="1" vertex="1">
                    <mxGeometry x="280" y="-160" width="120" height="60" as="geometry"/>
                </mxCell>
                <mxCell id="ZLVccVxG_D6yeQr7R69S-62" value="" style="edgeStyle=none;html=1;labelBackgroundColor=#18141D;" parent="1" source="ZLVccVxG_D6yeQr7R69S-60" target="ZLVccVxG_D6yeQr7R69S-61" edge="1">
                    <mxGeometry relative="1" as="geometry"/>
                </mxCell>
                <mxCell id="ZLVccVxG_D6yeQr7R69S-60" value="Encryption" style="rounded=0;whiteSpace=wrap;html=1;labelBackgroundColor=#18141D;fillColor=default;" parent="1" vertex="1">
                    <mxGeometry x="505" y="-15" width="110" height="50" as="geometry"/>
                </mxCell>
                <mxCell id="ZLVccVxG_D6yeQr7R69S-65" value="Not correct" style="edgeStyle=none;html=1;labelBackgroundColor=#18141D;" parent="1" source="ZLVccVxG_D6yeQr7R69S-61" target="ZLVccVxG_D6yeQr7R69S-59" edge="1">
                    <mxGeometry relative="1" as="geometry">
                        <mxPoint x="460" y="-120" as="targetPoint"/>
                    </mxGeometry>
                </mxCell>
                <mxCell id="ZLVccVxG_D6yeQr7R69S-67" value="Correct" style="edgeStyle=none;html=1;labelBackgroundColor=#18141D;" parent="1" source="ZLVccVxG_D6yeQr7R69S-61" target="ZLVccVxG_D6yeQr7R69S-66" edge="1">
                    <mxGeometry relative="1" as="geometry"/>
                </mxCell>
                <mxCell id="ZLVccVxG_D6yeQr7R69S-61" value="Compare" style="rhombus;whiteSpace=wrap;html=1;rounded=0;labelBackgroundColor=#18141D;" parent="1" vertex="1">
                    <mxGeometry x="520" y="-170" width="80" height="80" as="geometry"/>
                </mxCell>
                <mxCell id="ZLVccVxG_D6yeQr7R69S-66" value="User Logged In" style="whiteSpace=wrap;html=1;rounded=0;labelBackgroundColor=#18141D;" parent="1" vertex="1">
                    <mxGeometry x="690" y="-160" width="120" height="60" as="geometry"/>
                </mxCell>
                <mxCell id="ZLVccVxG_D6yeQr7R69S-69" value="Login Process" style="text;html=1;strokeColor=none;fillColor=none;align=center;verticalAlign=middle;whiteSpace=wrap;rounded=0;labelBackgroundColor=#18141D;fontSize=18;" parent="1" vertex="1">
                    <mxGeometry x="-40" y="-350" width="140" height="40" as="geometry"/>
                </mxCell>
                <mxCell id="i80UCWDN2A_49dQNjs6D-1" value="" style="endArrow=none;dashed=1;html=1;dashPattern=1 3;strokeWidth=2;labelBackgroundColor=#18141D;movable=0;resizable=0;rotatable=0;deletable=0;editable=0;connectable=0;" parent="1" edge="1">
                    <mxGeometry width="50" height="50" relative="1" as="geometry">
                        <mxPoint x="1080" y="-80" as="sourcePoint"/>
                        <mxPoint x="2063" y="-80" as="targetPoint"/>
                    </mxGeometry>
                </mxCell>
                <mxCell id="i80UCWDN2A_49dQNjs6D-2" value="" style="endArrow=none;dashed=1;html=1;dashPattern=1 3;strokeWidth=2;labelBackgroundColor=#18141D;movable=0;resizable=0;rotatable=0;deletable=0;editable=0;connectable=0;" parent="1" edge="1">
                    <mxGeometry width="50" height="50" relative="1" as="geometry">
                        <mxPoint x="1080" y="80" as="sourcePoint"/>
                        <mxPoint x="2063" y="80" as="targetPoint"/>
                    </mxGeometry>
                </mxCell>
                <mxCell id="i80UCWDN2A_49dQNjs6D-3" value="UI" style="text;html=1;strokeColor=none;fillColor=none;align=center;verticalAlign=middle;whiteSpace=wrap;rounded=0;labelBackgroundColor=#18141D;movable=0;resizable=0;rotatable=0;deletable=0;editable=0;connectable=0;" parent="1" vertex="1">
                    <mxGeometry x="1110" y="-160" width="60" height="30" as="geometry"/>
                </mxCell>
                <mxCell id="i80UCWDN2A_49dQNjs6D-4" value="API Ninja" style="text;html=1;strokeColor=none;fillColor=none;align=center;verticalAlign=middle;whiteSpace=wrap;rounded=0;labelBackgroundColor=#18141D;movable=0;resizable=0;rotatable=0;deletable=0;editable=0;connectable=0;" parent="1" vertex="1">
                    <mxGeometry x="1110" y="130" width="60" height="30" as="geometry"/>
                </mxCell>
                <mxCell id="i80UCWDN2A_49dQNjs6D-5" value="Service" style="text;html=1;strokeColor=none;fillColor=none;align=center;verticalAlign=middle;whiteSpace=wrap;rounded=0;labelBackgroundColor=#18141D;movable=0;resizable=0;rotatable=0;deletable=0;editable=0;connectable=0;" parent="1" vertex="1">
                    <mxGeometry x="1110" y="-30" width="60" height="30" as="geometry"/>
                </mxCell>
                <mxCell id="i80UCWDN2A_49dQNjs6D-6" value="Excersise API Call" style="text;html=1;strokeColor=none;fillColor=none;align=center;verticalAlign=middle;whiteSpace=wrap;rounded=0;labelBackgroundColor=#18141D;fontSize=18;" parent="1" vertex="1">
                    <mxGeometry x="1050" y="-350" width="230" height="40" as="geometry"/>
                </mxCell>
                <mxCell id="i80UCWDN2A_49dQNjs6D-7" value="Actor" style="shape=umlActor;verticalLabelPosition=bottom;verticalAlign=top;html=1;outlineConnect=0;fillColor=default;" parent="1" vertex="1">
                    <mxGeometry x="1230" y="-290" width="30" height="60" as="geometry"/>
                </mxCell>
                <mxCell id="i80UCWDN2A_49dQNjs6D-10" value="Search Term" style="edgeStyle=none;html=1;" parent="1" source="i80UCWDN2A_49dQNjs6D-8" target="i80UCWDN2A_49dQNjs6D-9" edge="1">
                    <mxGeometry relative="1" as="geometry"/>
                </mxCell>
                <mxCell id="i80UCWDN2A_49dQNjs6D-8" value="Excercise Page" style="rounded=0;whiteSpace=wrap;html=1;fillColor=default;" parent="1" vertex="1">
                    <mxGeometry x="1230" y="-170" width="120" height="60" as="geometry"/>
                </mxCell>
                <mxCell id="i80UCWDN2A_49dQNjs6D-15" value="POST Request" style="edgeStyle=none;html=1;exitX=0.75;exitY=1;exitDx=0;exitDy=0;entryX=0.25;entryY=0;entryDx=0;entryDy=0;" parent="1" source="i80UCWDN2A_49dQNjs6D-9" target="i80UCWDN2A_49dQNjs6D-12" edge="1">
                    <mxGeometry relative="1" as="geometry"/>
                </mxCell>
                <mxCell id="i80UCWDN2A_49dQNjs6D-9" value="Search" style="whiteSpace=wrap;html=1;rounded=0;" parent="1" vertex="1">
                    <mxGeometry x="1320" y="-30" width="120" height="60" as="geometry"/>
                </mxCell>
                <mxCell id="i80UCWDN2A_49dQNjs6D-19" value="Result" style="edgeStyle=none;html=1;entryX=0.5;entryY=1;entryDx=0;entryDy=0;" parent="1" source="i80UCWDN2A_49dQNjs6D-12" target="i80UCWDN2A_49dQNjs6D-18" edge="1">
                    <mxGeometry relative="1" as="geometry"/>
                </mxCell>
                <mxCell id="i80UCWDN2A_49dQNjs6D-12" value="Exercise Datastore" style="rounded=0;whiteSpace=wrap;html=1;fillColor=default;" parent="1" vertex="1">
                    <mxGeometry x="1540" y="240" width="110" height="30" as="geometry"/>
                </mxCell>
                <mxCell id="i80UCWDN2A_49dQNjs6D-21" value="Error" style="edgeStyle=none;html=1;" parent="1" source="i80UCWDN2A_49dQNjs6D-18" target="i80UCWDN2A_49dQNjs6D-20" edge="1">
                    <mxGeometry relative="1" as="geometry"/>
                </mxCell>
                <mxCell id="i80UCWDN2A_49dQNjs6D-23" value="API Results" style="edgeStyle=none;html=1;exitX=1;exitY=0.5;exitDx=0;exitDy=0;" parent="1" source="i80UCWDN2A_49dQNjs6D-18" target="i80UCWDN2A_49dQNjs6D-22" edge="1">
                    <mxGeometry relative="1" as="geometry"/>
                </mxCell>
                <mxCell id="i80UCWDN2A_49dQNjs6D-18" value="Data" style="rhombus;whiteSpace=wrap;html=1;rounded=0;" parent="1" vertex="1">
                    <mxGeometry x="1555" y="-40" width="80" height="80" as="geometry"/>
                </mxCell>
                <mxCell id="i80UCWDN2A_49dQNjs6D-20" value="Request Failed" style="whiteSpace=wrap;html=1;rounded=0;" parent="1" vertex="1">
                    <mxGeometry x="1535" y="-190" width="120" height="60" as="geometry"/>
                </mxCell>
                <mxCell id="i80UCWDN2A_49dQNjs6D-25" value="Response" style="edgeStyle=none;html=1;" parent="1" source="i80UCWDN2A_49dQNjs6D-22" target="i80UCWDN2A_49dQNjs6D-24" edge="1">
                    <mxGeometry relative="1" as="geometry"/>
                </mxCell>
                <mxCell id="i80UCWDN2A_49dQNjs6D-22" value="Parse to JSON" style="whiteSpace=wrap;html=1;rounded=0;fillColor=default;" parent="1" vertex="1">
                    <mxGeometry x="1820" y="-30" width="120" height="60" as="geometry"/>
                </mxCell>
                <mxCell id="i80UCWDN2A_49dQNjs6D-24" value="Exercise Data" style="whiteSpace=wrap;html=1;rounded=0;" parent="1" vertex="1">
                    <mxGeometry x="1820" y="-185" width="120" height="60" as="geometry"/>
                </mxCell>
                <mxCell id="i80UCWDN2A_49dQNjs6D-46" value="UI" style="text;html=1;strokeColor=none;fillColor=none;align=center;verticalAlign=middle;whiteSpace=wrap;rounded=0;labelBackgroundColor=#18141D;movable=0;resizable=0;rotatable=0;deletable=0;editable=0;connectable=0;" parent="1" vertex="1">
                    <mxGeometry x="2320" y="-160" width="60" height="30" as="geometry"/>
                </mxCell>
                <mxCell id="i80UCWDN2A_49dQNjs6D-47" value="File System" style="text;html=1;strokeColor=none;fillColor=none;align=center;verticalAlign=middle;whiteSpace=wrap;rounded=0;labelBackgroundColor=#18141D;movable=1;resizable=1;rotatable=1;deletable=1;editable=1;connectable=1;" parent="1" vertex="1">
                    <mxGeometry x="2320" y="130" width="60" height="30" as="geometry"/>
                </mxCell>
                <mxCell id="i80UCWDN2A_49dQNjs6D-48" value="Service" style="text;html=1;strokeColor=none;fillColor=none;align=center;verticalAlign=middle;whiteSpace=wrap;rounded=0;labelBackgroundColor=#18141D;movable=0;resizable=0;rotatable=0;deletable=0;editable=0;connectable=0;" parent="1" vertex="1">
                    <mxGeometry x="2320" y="-15" width="60" height="30" as="geometry"/>
                </mxCell>
                <mxCell id="i80UCWDN2A_49dQNjs6D-49" value="" style="endArrow=none;dashed=1;html=1;dashPattern=1 3;strokeWidth=2;labelBackgroundColor=#18141D;movable=1;resizable=1;rotatable=1;deletable=1;editable=1;connectable=1;" parent="1" edge="1">
                    <mxGeometry width="50" height="50" relative="1" as="geometry">
                        <mxPoint x="2290" y="-80" as="sourcePoint"/>
                        <mxPoint x="3080" y="-80" as="targetPoint"/>
                    </mxGeometry>
                </mxCell>
                <mxCell id="i80UCWDN2A_49dQNjs6D-50" value="" style="endArrow=none;dashed=1;html=1;dashPattern=1 3;strokeWidth=2;labelBackgroundColor=#18141D;movable=1;resizable=1;rotatable=1;deletable=1;editable=1;connectable=1;" parent="1" edge="1">
                    <mxGeometry width="50" height="50" relative="1" as="geometry">
                        <mxPoint x="2290" y="80" as="sourcePoint"/>
                        <mxPoint x="3080" y="80" as="targetPoint"/>
                    </mxGeometry>
                </mxCell>
                <mxCell id="i80UCWDN2A_49dQNjs6D-65" value="Accesses Gym Page" style="edgeStyle=none;html=1;exitX=0.5;exitY=0.5;exitDx=0;exitDy=0;exitPerimeter=0;entryX=0.5;entryY=0;entryDx=0;entryDy=0;" parent="1" source="i80UCWDN2A_49dQNjs6D-51" target="i80UCWDN2A_49dQNjs6D-52" edge="1">
                    <mxGeometry relative="1" as="geometry"/>
                </mxCell>
                <mxCell id="i80UCWDN2A_49dQNjs6D-51" value="Actor" style="shape=umlActor;verticalLabelPosition=bottom;verticalAlign=top;html=1;outlineConnect=0;fillColor=default;" parent="1" vertex="1">
                    <mxGeometry x="2720" y="-350" width="30" height="60" as="geometry"/>
                </mxCell>
                <mxCell id="i80UCWDN2A_49dQNjs6D-54" value="" style="edgeStyle=none;html=1;" parent="1" source="i80UCWDN2A_49dQNjs6D-52" target="i80UCWDN2A_49dQNjs6D-53" edge="1">
                    <mxGeometry relative="1" as="geometry"/>
                </mxCell>
                <mxCell id="i80UCWDN2A_49dQNjs6D-52" value="Gym Page" style="rounded=0;whiteSpace=wrap;html=1;fillColor=default;" parent="1" vertex="1">
                    <mxGeometry x="2440" y="-160" width="120" height="60" as="geometry"/>
                </mxCell>
                <mxCell id="i80UCWDN2A_49dQNjs6D-56" value="" style="edgeStyle=none;html=1;" parent="1" source="i80UCWDN2A_49dQNjs6D-53" target="i80UCWDN2A_49dQNjs6D-55" edge="1">
                    <mxGeometry relative="1" as="geometry"/>
                </mxCell>
                <mxCell id="i80UCWDN2A_49dQNjs6D-53" value="Service Endpoint" style="whiteSpace=wrap;html=1;rounded=0;" parent="1" vertex="1">
                    <mxGeometry x="2560" y="-20" width="120" height="60" as="geometry"/>
                </mxCell>
                <mxCell id="i80UCWDN2A_49dQNjs6D-59" value="Data" style="edgeStyle=none;html=1;" parent="1" source="i80UCWDN2A_49dQNjs6D-55" target="i80UCWDN2A_49dQNjs6D-60" edge="1">
                    <mxGeometry relative="1" as="geometry">
                        <mxPoint x="2770" y="-120" as="targetPoint"/>
                    </mxGeometry>
                </mxCell>
                <mxCell id="i80UCWDN2A_49dQNjs6D-55" value="gym.json file" style="whiteSpace=wrap;html=1;rounded=0;" parent="1" vertex="1">
                    <mxGeometry x="2740" y="130" width="120" height="60" as="geometry"/>
                </mxCell>
                <mxCell id="i80UCWDN2A_49dQNjs6D-64" value="Yes" style="edgeStyle=none;html=1;" parent="1" source="i80UCWDN2A_49dQNjs6D-60" target="i80UCWDN2A_49dQNjs6D-63" edge="1">
                    <mxGeometry relative="1" as="geometry"/>
                </mxCell>
                <mxCell id="i80UCWDN2A_49dQNjs6D-68" value="No" style="edgeStyle=none;html=1;exitX=0;exitY=0.5;exitDx=0;exitDy=0;" parent="1" source="i80UCWDN2A_49dQNjs6D-60" target="i80UCWDN2A_49dQNjs6D-61" edge="1">
                    <mxGeometry relative="1" as="geometry"/>
                </mxCell>
                <mxCell id="i80UCWDN2A_49dQNjs6D-60" value="Results" style="rhombus;whiteSpace=wrap;html=1;fillColor=default;" parent="1" vertex="1">
                    <mxGeometry x="2760" y="-170" width="80" height="80" as="geometry"/>
                </mxCell>
                <mxCell id="i80UCWDN2A_49dQNjs6D-61" value="Error Reading File" style="whiteSpace=wrap;html=1;" parent="1" vertex="1">
                    <mxGeometry x="2580" y="-160" width="120" height="60" as="geometry"/>
                </mxCell>
                <mxCell id="i80UCWDN2A_49dQNjs6D-67" value="Displays Data to User" style="edgeStyle=none;html=1;exitX=0.5;exitY=0;exitDx=0;exitDy=0;entryX=0.5;entryY=0.5;entryDx=0;entryDy=0;entryPerimeter=0;" parent="1" source="i80UCWDN2A_49dQNjs6D-63" target="i80UCWDN2A_49dQNjs6D-51" edge="1">
                    <mxGeometry relative="1" as="geometry"/>
                </mxCell>
                <mxCell id="i80UCWDN2A_49dQNjs6D-63" value="Display Gym Data" style="whiteSpace=wrap;html=1;" parent="1" vertex="1">
                    <mxGeometry x="2900" y="-160" width="120" height="60" as="geometry"/>
                </mxCell>
                <mxCell id="i80UCWDN2A_49dQNjs6D-70" value="Gym Data Retrieval and Reading" style="text;html=1;strokeColor=none;fillColor=none;align=center;verticalAlign=middle;whiteSpace=wrap;rounded=0;labelBackgroundColor=#18141D;fontSize=18;" parent="1" vertex="1">
                    <mxGeometry x="2270" y="-410" width="230" height="40" as="geometry"/>
                </mxCell>
            </root>
        </mxGraphModel>
    </diagram>
</mxfile>